<svg width="1333" height="1109" viewBox="0 0 1333 1109" fill="none" xmlns="http://www.w3.org/2000/svg">
<path d="M225 403.337C225 425.437 207.1 443.337 185 443.337C162.9 443.337 145 425.437 145 403.337C145 381.237 162.9 363.337 185 363.337C207.1 363.337 225 381.237 225 403.337Z" fill="white" stroke="#5E5E5E" stroke-width="3"/>
<path d="M185.173 392.538C189.371 392.568 190.396 395.971 190.364 400.416C190.332 404.86 189.072 408.308 184.998 408.279C180.862 408.249 179.714 404.783 179.746 400.339C179.779 395.833 180.852 392.507 185.173 392.538ZM185.01 406.674C187.911 406.694 188.365 403.673 188.388 400.401C188.412 397.13 188.187 394.103 185.162 394.081C182.014 394.059 181.746 397.02 181.722 400.353C181.698 403.625 181.985 406.652 185.01 406.674Z" fill="#333333"/>
<path d="M383 403.337C383 425.437 365.1 443.337 343 443.337C320.9 443.337 303 425.437 303 403.337C303 381.237 320.9 363.337 343 363.337C365.1 363.337 383 381.237 383 403.337Z" fill="white" stroke="#5E5E5E" stroke-width="3"/>
<path d="M338.494 407.999L338.506 406.332L342.456 406.361L342.541 394.632L339.067 397.015L339.08 395.225L342.678 392.72L344.468 392.733L344.37 406.375L348.135 406.402L348.123 408.068L338.494 407.999Z" fill="#333333"/>
<path d="M541 403.337C541 425.437 523.1 443.337 501 443.337C478.9 443.337 461 425.437 461 403.337C461 381.237 478.9 363.337 501 363.337C523.1 363.337 541 381.237 541 403.337Z" fill="white" stroke="#5E5E5E" stroke-width="3"/>
<path d="M501.173 392.538C506.238 392.143 506.875 397.95 503.769 400.706L499.917 404.073C499.233 404.747 498.488 405.421 498.111 406.344L506.074 406.402L506.062 408.068L495.938 407.995C496.106 401.885 503.881 402.25 503.92 396.818C503.933 395.089 502.952 394.156 501.162 394.143C499.372 394.13 498.315 395.049 498.119 396.652L496.145 396.453C496.533 393.925 498.27 392.764 501.173 392.538Z" fill="#333333"/>
<path d="M699 403.337C699 425.437 681.1 443.337 659 443.337C636.9 443.337 619 425.437 619 403.337C619 381.237 636.9 363.337 659 363.337C681.1 363.337 699 381.237 699 403.337Z" fill="white" stroke="#5E5E5E" stroke-width="3"/>
<path d="M660.661 400.204C662.696 400.589 664.233 401.464 664.215 403.872C664.176 409.304 655.594 409.489 654.079 405.589C653.897 405.094 653.777 404.599 653.72 404.043L655.696 403.872C656.055 405.541 656.973 406.597 659.01 406.612C660.985 406.626 662.227 405.709 662.24 403.796C662.257 401.45 660.039 400.94 657.383 401.106L657.395 399.378C659.802 399.457 661.842 399.163 661.859 396.817C661.871 395.15 660.828 394.155 659.038 394.142C657.31 394.13 656.13 395.047 655.995 396.651L654.021 396.452C654.41 393.862 656.21 392.579 659.05 392.537C662.013 392.497 663.917 393.869 663.897 396.585C663.881 398.807 662.578 399.785 660.661 400.204Z" fill="#333333"/>
<path d="M857 403.337C857 425.437 839.1 443.337 817 443.337C794.9 443.337 777 425.437 777 403.337C777 381.237 794.9 363.337 817 363.337C839.1 363.337 857 381.237 857 403.337Z" fill="white" stroke="#5E5E5E" stroke-width="3"/>
<path d="M820.42 404.599L820.395 408.056L818.543 408.043L818.568 404.586L811.346 404.534L811.357 402.991L818.468 392.733L820.505 392.748L820.431 403.056L822.591 403.072L822.58 404.615L820.42 404.599ZM818.637 394.956C816.95 397.784 815.017 400.486 813.147 403.004L818.579 403.043L818.637 394.956Z" fill="#333333"/>
<path d="M1015 403.337C1015 425.437 997.1 443.337 975 443.337C952.9 443.337 935 425.437 935 403.337C935 381.237 952.9 363.337 975 363.337C997.1 363.337 1015 381.237 1015 403.337Z" fill="white" stroke="#5E5E5E" stroke-width="3"/>
<path d="M972.224 399.246C975.202 397.106 980.684 398.813 980.283 403.069C980.918 409.185 970.726 410.038 969.716 404.598L971.693 404.365C972.115 405.788 973.034 406.659 974.886 406.673C977.047 406.626 978.044 405.337 978.245 403.116C978.517 399.723 973.768 399.072 972.149 400.974L970.236 400.96L970.789 392.692L979.493 392.754L979.481 394.421L972.567 394.371" fill="#333333"/>
<path d="M1173 403.337C1173 425.437 1155.1 443.337 1133 443.337C1110.9 443.337 1093 425.437 1093 403.337C1093 381.237 1110.9 363.337 1133 363.337C1155.1 363.337 1173 381.237 1173 403.337Z" fill="white" stroke="#5E5E5E" stroke-width="3"/>
<path d="M1133.69 398.16C1136.65 398.243 1138.24 400.044 1138.22 403.069C1138.2 406.341 1136.45 408.304 1133.24 408.28C1129.23 408.251 1128.15 404.848 1127.99 400.711C1127.72 395.153 1131.15 390.734 1136.25 393.24C1137.12 393.678 1137.6 394.546 1137.9 395.659L1135.99 396.016C1135.7 393.544 1131.87 393.64 1130.93 395.609C1130.36 396.778 1129.98 398.318 1129.97 400.17C1130.66 398.94 1131.84 398.085 1133.69 398.16ZM1133.19 406.675C1135.29 406.69 1136.23 405.277 1136.25 403.117C1136.26 400.956 1135.28 399.653 1133.18 399.638C1131.39 399.625 1130.09 400.603 1130.14 402.64C1130.18 404.863 1131.03 406.659 1133.19 406.675Z" fill="#333333"/>
<path d="M1331 403.337C1331 425.437 1313.1 443.337 1291 443.337C1268.9 443.337 1251 425.437 1251 403.337C1251 381.237 1268.9 363.337 1291 363.337C1313.1 363.337 1331 381.237 1331 403.337Z" fill="white" stroke="#5E5E5E" stroke-width="3"/>
<path d="M1288.78 408.016C1289.01 401.968 1291.81 398.222 1294.31 394.413L1286.04 394.353L1286.05 392.687L1296.17 392.759L1296.16 394.364C1293.72 398.359 1290.92 401.796 1290.81 408.03L1288.78 408.016Z" fill="#333333"/>
<path d="M343.98 445.867V446.437L343.88 447.997L343.71 449.517L343.51 450.997L343.21 452.447L342.89 453.877L342.49 455.277L342.05 456.677L341.55 458.037L340.97 459.397L340.33 460.747L339.63 462.087L338.86 463.437L338 464.787L337.06 466.127L336.03 467.477L334.91 468.827L333.69 470.197L332.34 471.577L330.84 472.977L329.24 474.377L327.44 475.777L325.46 477.217L323.29 478.657L320.89 480.107L318.25 481.567L315.32 483.007L312.1 484.437L308.54 485.837L304.62 487.217L300.32 488.517L295.62 489.717L290.55 490.797L290.15 490.867V488.837H290.18L295.18 487.767L299.78 486.587L304 485.317L307.84 483.977L311.34 482.607L314.48 481.207L317.33 479.807L319.91 478.377L322.24 476.977L324.34 475.577L326.26 474.197L327.98 472.827L329.54 471.477L330.97 470.147L332.27 468.827L333.43 467.527L334.49 466.227L335.47 464.947L336.37 463.667L337.17 462.387L337.9 461.117L338.56 459.847L339.16 458.567L339.7 457.287L340.18 455.987L340.6 454.687L340.97 453.387L341.29 452.027L341.55 450.667L341.75 449.267L341.9 447.827L342 446.357V445.807L343.98 445.867ZM190.86 462.367L191.66 463.667L192.56 464.927L193.53 466.207L194.6 467.507L195.78 468.807L197.08 470.127L198.48 471.467L200.05 472.817L201.78 474.177L203.68 475.577L205.78 476.977L208.11 478.377L210.69 479.777L213.54 481.197L216.69 482.597L220.19 483.997L224.02 485.317L228.25 486.587L232.85 487.787L237.85 488.847H237.9V490.877L237.47 490.797L232.4 489.717L227.7 488.517L223.4 487.217L219.5 485.857L215.93 484.457L212.71 483.017L209.78 481.557L207.14 480.107L204.74 478.657L202.58 477.217L200.61 475.787L198.81 474.387L197.19 472.967L195.71 471.567L194.36 470.197L193.13 468.847L191.99 467.487L190.97 466.127L190.03 464.777L189.18 463.427L188.93 462.987L190.66 461.987L190.86 462.367Z" fill="#5E5E5E" stroke="#5E5E5E" stroke-width="0.05"/>
<path d="M342.98 444.837L344 444.797L343.98 445.897L341.98 445.837L342 444.777L342.98 444.837Z" fill="#5E5E5E"/>
<path d="M342.98 444.807L344.03 444.777L344 445.917L341.95 445.877L341.98 444.757L342.98 444.807ZM342 445.807L343.95 445.857L343.98 444.817L342.98 444.847L342.03 444.777L342 445.807Z" fill="#5E5E5E" stroke="#5E5E5E" stroke-width="0.05"/>
<path d="M194.04 460.527L185.09 462.927L185.83 447.957L194.04 460.527Z" fill="#5E5E5E"/>
<path d="M195.63 461.127L184.03 464.267L185 444.837L195.63 461.127ZM186.16 461.627L192.46 459.927L186.69 451.087L186.16 461.627Z" fill="#5E5E5E" stroke="#5E5E5E" stroke-width="0.05"/>
<path d="M249.232 495.757L249.331 485.683L246.171 495.757H244.344L241.233 485.683L241.332 495.757H239.06V483.511H242.517L245.282 492.646L248.097 483.511H251.504V495.757H249.232Z" fill="#333333"/>
<path d="M261.775 493.387C261.133 494.868 259.948 496.004 257.726 495.954C254.763 495.856 253.331 494.127 253.331 491.016C253.331 487.906 254.813 486.177 257.776 486.177C260.837 486.177 261.874 488.399 261.923 491.51H255.899C255.899 493.041 256.294 494.226 257.825 494.276C258.714 494.276 259.306 493.93 259.504 493.189L261.775 493.387ZM259.553 489.98C259.8 487.708 256.739 486.869 256.097 488.943C255.998 489.239 255.899 489.584 255.899 489.98H259.553Z" fill="#333333"/>
<path d="M269.183 488.35C267.257 487.758 266.22 488.992 266.22 491.165V495.757H263.751L263.702 486.375H266.023C266.122 487.017 265.974 487.807 266.171 488.35C266.467 486.968 267.504 485.733 269.183 486.326V488.35Z" fill="#333333"/>
<path d="M279.06 495.461C279.603 499.806 273.134 500.695 270.962 498.028C270.764 497.732 270.665 497.387 270.567 496.991L272.986 496.695C273.134 497.485 273.776 497.88 274.665 497.93C276.64 497.93 276.739 496.103 276.64 494.029C276.097 495.115 275.159 495.757 273.628 495.757C271.011 495.757 270.172 493.634 270.172 490.967C270.172 488.202 271.061 486.227 273.776 486.177C275.258 486.177 276.048 486.869 276.69 487.856L276.789 486.375H279.109L279.06 495.461ZM274.616 494.029C276.196 494.029 276.64 492.695 276.64 490.918C276.64 489.189 276.196 487.856 274.665 487.856C273.085 487.856 272.739 489.288 272.69 490.967C272.69 492.745 273.134 494.029 274.616 494.029Z" fill="#333333"/>
<path d="M289.38 493.387C288.738 494.868 287.553 496.004 285.331 495.954C282.368 495.856 280.936 494.127 280.936 491.016C280.936 487.906 282.418 486.177 285.38 486.177C288.442 486.177 289.479 488.399 289.528 491.51H283.504C283.504 493.041 283.899 494.226 285.43 494.276C286.319 494.276 286.911 493.93 287.109 493.189L289.38 493.387ZM287.158 489.98C287.405 487.708 284.343 486.869 283.702 488.943C283.603 489.239 283.504 489.584 283.504 489.98H287.158Z" fill="#333333"/>
<path d="M659.98 445.867V446.437L659.88 447.997L659.71 449.517L659.51 450.997L659.21 452.447L658.89 453.877L658.49 455.277L658.05 456.677L657.55 458.037L656.97 459.397L656.33 460.747L655.63 462.087L654.85 463.437L654 464.787L653.06 466.127L652.03 467.477L650.91 468.827L649.69 470.197L648.34 471.577L646.84 472.977L645.22 474.377L643.45 475.777L641.47 477.217L639.3 478.657L636.9 480.107L634.26 481.567L631.33 483.007L628.11 484.437L624.55 485.837L620.63 487.217L616.33 488.517L611.63 489.717L606.56 490.797L606.16 490.867V488.837H606.19L611.19 487.767L615.79 486.587L620.01 485.317L623.86 483.977L627.34 482.607L630.5 481.207L633.35 479.807L635.93 478.377L638.26 476.977L640.36 475.577L642.28 474.197L644 472.827L645.57 471.477L647 470.147L648.3 468.827L649.46 467.527L650.52 466.227L651.5 464.947L652.4 463.667L653.2 462.387L653.93 461.117L654.59 459.847L655.19 458.567L655.73 457.287L656.21 455.987L656.63 454.687L657 453.387L657.32 452.027L657.58 450.667L657.78 449.267L657.94 447.827L658.04 446.357V445.807L659.98 445.867ZM506.86 462.367L507.66 463.667L508.56 464.927L509.53 466.207L510.6 467.507L511.78 468.807L513.08 470.127L514.48 471.467L516.05 472.817L517.78 474.177L519.68 475.577L521.78 476.977L524.11 478.377L526.69 479.777L529.54 481.197L532.69 482.597L536.19 483.997L540.02 485.317L544.24 486.587L548.84 487.787L553.84 488.847H553.9V490.877L553.47 490.797L548.4 489.717L543.7 488.517L539.4 487.217L535.5 485.857L531.93 484.457L528.71 483.017L525.79 481.557L523.14 480.107L520.74 478.657L518.58 477.217L516.61 475.787L514.81 474.387L513.19 472.967L511.71 471.567L510.36 470.197L509.13 468.847L507.99 467.487L506.97 466.127L506.03 464.777L505.18 463.427L504.93 462.987L506.66 461.987L506.86 462.367Z" fill="#5E5E5E" stroke="#5E5E5E" stroke-width="0.05"/>
<path d="M658.98 444.837L660 444.797L659.98 445.897L657.98 445.837L658 444.777L658.98 444.837Z" fill="#5E5E5E"/>
<path d="M658.98 444.807L660.03 444.777L660 445.917L657.95 445.877L657.98 444.757L658.98 444.807ZM658 445.807L659.95 445.857L659.97 444.817L658.97 444.847L658.03 444.777L658 445.807Z" fill="#5E5E5E" stroke="#5E5E5E" stroke-width="0.05"/>
<path d="M510.04 460.527L501.09 462.927L501.83 447.957L510.04 460.527Z" fill="#5E5E5E"/>
<path d="M511.63 461.127L500.03 464.267L501 444.837L511.63 461.127ZM502.16 461.627L508.46 459.927L502.69 451.087L502.16 461.627Z" fill="#5E5E5E" stroke="#5E5E5E" stroke-width="0.05"/>
<path d="M565.232 495.757L565.331 485.683L562.171 495.757H560.344L557.233 485.683L557.332 495.757H555.06V483.511H558.517L561.282 492.646L564.097 483.511H567.504V495.757H565.232Z" fill="#333333"/>
<path d="M577.775 493.387C577.133 494.868 575.948 496.004 573.726 495.954C570.763 495.856 569.331 494.127 569.331 491.016C569.331 487.906 570.813 486.177 573.775 486.177C576.837 486.177 577.874 488.399 577.923 491.51H571.899C571.899 493.041 572.294 494.226 573.825 494.276C574.714 494.276 575.306 493.93 575.504 493.189L577.775 493.387ZM575.553 489.98C575.8 487.708 572.739 486.869 572.097 488.943C571.998 489.239 571.899 489.584 571.899 489.98H575.553Z" fill="#333333"/>
<path d="M585.183 488.35C583.258 487.758 582.221 488.992 582.221 491.165V495.757H579.752L579.702 486.375H582.023C582.122 487.017 581.974 487.807 582.171 488.35C582.467 486.968 583.504 485.733 585.183 486.326V488.35Z" fill="#333333"/>
<path d="M595.06 495.461C595.603 499.806 589.134 500.695 586.962 498.028C586.764 497.732 586.665 497.387 586.567 496.991L588.986 496.695C589.134 497.485 589.776 497.88 590.665 497.93C592.64 497.93 592.739 496.103 592.64 494.029C592.097 495.115 591.159 495.757 589.628 495.757C587.011 495.757 586.172 493.634 586.172 490.967C586.172 488.202 587.061 486.227 589.776 486.177C591.258 486.177 592.048 486.869 592.69 487.856L592.789 486.375H595.109L595.06 495.461ZM590.616 494.029C592.196 494.029 592.64 492.695 592.64 490.918C592.64 489.189 592.196 487.856 590.665 487.856C589.085 487.856 588.739 489.288 588.69 490.967C588.69 492.745 589.134 494.029 590.616 494.029Z" fill="#333333"/>
<path d="M605.38 493.387C604.738 494.868 603.553 496.004 601.331 495.954C598.368 495.856 596.936 494.127 596.936 491.016C596.936 487.906 598.418 486.177 601.381 486.177C604.442 486.177 605.479 488.399 605.528 491.51H599.504C599.504 493.041 599.899 494.226 601.43 494.276C602.319 494.276 602.911 493.93 603.109 493.189L605.38 493.387ZM603.158 489.98C603.405 487.708 600.344 486.869 599.702 488.943C599.603 489.239 599.504 489.584 599.504 489.98H603.158Z" fill="#333333"/>
<path d="M975.98 445.867V446.437L975.88 447.997L975.71 449.517L975.51 450.997L975.21 452.447L974.89 453.877L974.49 455.277L974.05 456.677L973.55 458.037L972.97 459.397L972.33 460.747L971.63 462.087L970.86 463.437L970 464.787L969.06 466.127L968.03 467.477L966.91 468.827L965.69 470.197L964.34 471.577L962.84 472.977L961.22 474.377L959.44 475.777L957.47 477.217L955.3 478.657L952.9 480.107L950.26 481.567L947.33 483.007L944.11 484.437L940.55 485.837L936.63 487.217L932.33 488.517L927.63 489.717L922.56 490.797L922.16 490.867V488.837H922.19L927.19 487.767L931.79 486.587L936.01 485.317L939.86 483.977L943.34 482.607L946.5 481.207L949.35 479.807L951.93 478.377L954.26 476.977L956.36 475.577L958.28 474.197L960 472.827L961.56 471.477L962.99 470.147L964.29 468.827L965.45 467.527L966.52 466.227L967.49 464.947L968.39 463.667L969.19 462.387L969.92 461.117L970.58 459.847L971.18 458.567L971.72 457.287L972.2 455.987L972.62 454.687L972.99 453.387L973.31 452.027L973.57 450.667L973.77 449.267L973.92 447.827L974.02 446.357V445.807L975.98 445.867ZM822.86 462.367L823.66 463.667L824.56 464.927L825.53 466.207L826.6 467.507L827.78 468.807L829.08 470.127L830.48 471.467L832.05 472.817L833.78 474.177L835.68 475.577L837.78 476.977L840.11 478.377L842.69 479.777L845.54 481.197L848.69 482.597L852.19 483.997L856.02 485.317L860.24 486.587L864.84 487.787L869.84 488.847H869.9V490.877L869.47 490.797L864.4 489.717L859.7 488.517L855.4 487.217L851.5 485.857L847.93 484.457L844.71 483.017L841.79 481.557L839.14 480.107L836.74 478.657L834.58 477.217L832.61 475.787L830.81 474.387L829.19 472.967L827.71 471.567L826.36 470.197L825.13 468.847L823.99 467.487L822.97 466.127L822.03 464.777L821.18 463.427L820.93 462.987L822.66 461.987L822.86 462.367Z" fill="#5E5E5E" stroke="#5E5E5E" stroke-width="0.05"/>
<path d="M974.98 444.837L976 444.797L975.98 445.897L973.98 445.837L974 444.777L974.98 444.837Z" fill="#5E5E5E"/>
<path d="M974.98 444.807L976.03 444.777L976 445.917L973.95 445.877L973.98 444.757L974.98 444.807ZM974 445.807L975.95 445.857L975.97 444.817L974.97 444.847L974.02 444.777L974 445.807Z" fill="#5E5E5E" stroke="#5E5E5E" stroke-width="0.05"/>
<path d="M826.04 460.527L817.09 462.927L817.83 447.957L826.04 460.527Z" fill="#5E5E5E"/>
<path d="M827.63 461.127L816.03 464.267L817 444.837L827.63 461.127ZM818.16 461.627L824.46 459.927L818.69 451.087L818.16 461.627Z" fill="#5E5E5E" stroke="#5E5E5E" stroke-width="0.05"/>
<path d="M881.232 495.757L881.331 485.683L878.171 495.757H876.344L873.233 485.683L873.332 495.757H871.06V483.511H874.517L877.282 492.646L880.097 483.511H883.504V495.757H881.232Z" fill="#333333"/>
<path d="M893.775 493.387C893.133 494.868 891.948 496.004 889.726 495.954C886.763 495.856 885.331 494.127 885.331 491.016C885.331 487.906 886.813 486.177 889.775 486.177C892.837 486.177 893.874 488.399 893.923 491.51H887.899C887.899 493.041 888.294 494.226 889.825 494.276C890.714 494.276 891.306 493.93 891.504 493.189L893.775 493.387ZM891.553 489.98C891.8 487.708 888.739 486.869 888.097 488.943C887.998 489.239 887.899 489.584 887.899 489.98H891.553Z" fill="#333333"/>
<path d="M901.183 488.35C899.258 487.758 898.221 488.992 898.221 491.165V495.757H895.752L895.702 486.375H898.023C898.122 487.017 897.974 487.807 898.171 488.35C898.467 486.968 899.504 485.733 901.183 486.326V488.35Z" fill="#333333"/>
<path d="M911.06 495.461C911.603 499.806 905.135 500.695 902.962 498.028C902.764 497.732 902.666 497.387 902.567 496.991L904.986 496.695C905.135 497.485 905.776 497.88 906.665 497.93C908.641 497.93 908.739 496.103 908.641 494.029C908.097 495.115 907.159 495.757 905.628 495.757C903.011 495.757 902.172 493.634 902.172 490.967C902.172 488.202 903.061 486.227 905.776 486.177C907.258 486.177 908.048 486.869 908.69 487.856L908.789 486.375H911.11L911.06 495.461ZM906.616 494.029C908.196 494.029 908.641 492.695 908.641 490.918C908.641 489.189 908.196 487.856 906.665 487.856C905.085 487.856 904.74 489.288 904.69 490.967C904.69 492.745 905.135 494.029 906.616 494.029Z" fill="#333333"/>
<path d="M921.38 493.387C920.738 494.868 919.553 496.004 917.331 495.954C914.368 495.856 912.936 494.127 912.936 491.016C912.936 487.906 914.418 486.177 917.38 486.177C920.442 486.177 921.479 488.399 921.528 491.51H915.504C915.504 493.041 915.899 494.226 917.43 494.276C918.319 494.276 918.911 493.93 919.109 493.189L921.38 493.387ZM919.158 489.98C919.405 487.708 916.343 486.869 915.702 488.943C915.603 489.239 915.504 489.584 915.504 489.98H919.158Z" fill="#333333"/>
<path d="M1291.98 445.867V446.437L1291.88 447.997L1291.71 449.517L1291.51 450.997L1291.21 452.447L1290.89 453.877L1290.49 455.277L1290.05 456.677L1289.55 458.037L1288.97 459.397L1288.33 460.747L1287.63 462.087L1286.86 463.437L1286 464.787L1285.06 466.127L1284.03 467.477L1282.91 468.827L1281.69 470.197L1280.34 471.577L1278.84 472.977L1277.22 474.377L1275.44 475.777L1273.47 477.217L1271.3 478.657L1268.9 480.107L1266.26 481.567L1263.33 483.007L1260.11 484.437L1256.55 485.837L1252.63 487.217L1248.33 488.517L1243.63 489.717L1238.56 490.797L1238.16 490.867V488.837H1238.19L1243.19 487.767L1247.79 486.587L1252.01 485.317L1255.86 483.977L1259.34 482.607L1262.5 481.207L1265.35 479.807L1267.93 478.377L1270.26 476.977L1272.36 475.577L1274.28 474.197L1276 472.827L1277.56 471.477L1278.99 470.147L1280.29 468.827L1281.45 467.527L1282.52 466.227L1283.49 464.947L1284.39 463.667L1285.19 462.387L1285.92 461.117L1286.58 459.847L1287.18 458.567L1287.72 457.287L1288.2 455.987L1288.62 454.687L1288.99 453.387L1289.31 452.027L1289.57 450.667L1289.77 449.267L1289.92 447.827L1290.02 446.357V445.807L1291.98 445.867ZM1138.86 462.367L1139.66 463.667L1140.56 464.927L1141.53 466.207L1142.6 467.507L1143.78 468.807L1145.08 470.127L1146.48 471.467L1148.05 472.817L1149.78 474.177L1151.68 475.577L1153.78 476.977L1156.11 478.377L1158.69 479.777L1161.54 481.197L1164.69 482.597L1168.17 483.997L1172.02 485.317L1176.24 486.587L1180.84 487.787L1185.84 488.847H1185.9V490.877L1185.47 490.797L1180.4 489.717L1175.7 488.517L1171.4 487.217L1167.5 485.857L1163.93 484.457L1160.71 483.017L1157.78 481.557L1155.14 480.107L1152.74 478.657L1150.58 477.217L1148.61 475.787L1146.81 474.387L1145.19 472.967L1143.71 471.567L1142.36 470.197L1141.13 468.847L1139.99 467.487L1138.97 466.127L1138.03 464.777L1137.18 463.427L1136.93 462.987L1138.66 461.987L1138.86 462.367Z" fill="#5E5E5E" stroke="#5E5E5E" stroke-width="0.05"/>
<path d="M1290.98 444.837L1292 444.797L1291.98 445.897L1289.98 445.837L1290 444.777L1290.98 444.837Z" fill="#5E5E5E"/>
<path d="M1290.98 444.807L1292.03 444.777L1292 445.917L1289.95 445.877L1289.98 444.757L1290.98 444.807ZM1290 445.807L1291.95 445.857L1291.97 444.817L1290.97 444.847L1290.02 444.777L1290 445.807Z" fill="#5E5E5E" stroke="#5E5E5E" stroke-width="0.05"/>
<path d="M1142.04 460.527L1133.09 462.927L1133.83 447.957L1142.04 460.527Z" fill="#5E5E5E"/>
<path d="M1143.63 461.127L1132.03 464.267L1133 444.837L1143.63 461.127ZM1134.16 461.627L1140.46 459.927L1134.69 451.087L1134.16 461.627Z" fill="#5E5E5E" stroke="#5E5E5E" stroke-width="0.05"/>
<path d="M1197.23 495.757L1197.33 485.683L1194.17 495.757H1192.34L1189.23 485.683L1189.33 495.757H1187.06V483.511H1190.52L1193.28 492.646L1196.1 483.511H1199.5V495.757H1197.23Z" fill="#333333"/>
<path d="M1209.78 493.387C1209.13 494.868 1207.95 496.004 1205.73 495.954C1202.76 495.856 1201.33 494.127 1201.33 491.016C1201.33 487.906 1202.81 486.177 1205.78 486.177C1208.84 486.177 1209.87 488.399 1209.92 491.51H1203.9C1203.9 493.041 1204.29 494.226 1205.83 494.276C1206.71 494.276 1207.31 493.93 1207.5 493.189L1209.78 493.387ZM1207.55 489.98C1207.8 487.708 1204.74 486.869 1204.1 488.943C1204 489.239 1203.9 489.584 1203.9 489.98H1207.55Z" fill="#333333"/>
<path d="M1217.18 488.35C1215.26 487.758 1214.22 488.992 1214.22 491.165V495.757H1211.75L1211.7 486.375H1214.02C1214.12 487.017 1213.97 487.807 1214.17 488.35C1214.47 486.968 1215.5 485.733 1217.18 486.326V488.35Z" fill="#333333"/>
<path d="M1227.06 495.461C1227.6 499.806 1221.13 500.695 1218.96 498.028C1218.76 497.732 1218.67 497.387 1218.57 496.991L1220.99 496.695C1221.13 497.485 1221.78 497.88 1222.67 497.93C1224.64 497.93 1224.74 496.103 1224.64 494.029C1224.1 495.115 1223.16 495.757 1221.63 495.757C1219.01 495.757 1218.17 493.634 1218.17 490.967C1218.17 488.202 1219.06 486.227 1221.78 486.177C1223.26 486.177 1224.05 486.869 1224.69 487.856L1224.79 486.375H1227.11L1227.06 495.461ZM1222.62 494.029C1224.2 494.029 1224.64 492.695 1224.64 490.918C1224.64 489.189 1224.2 487.856 1222.67 487.856C1221.09 487.856 1220.74 489.288 1220.69 490.967C1220.69 492.745 1221.13 494.029 1222.62 494.029Z" fill="#333333"/>
<path d="M1237.38 493.387C1236.74 494.868 1235.55 496.004 1233.33 495.954C1230.37 495.856 1228.94 494.127 1228.94 491.016C1228.94 487.906 1230.42 486.177 1233.38 486.177C1236.44 486.177 1237.48 488.399 1237.53 491.51H1231.5C1231.5 493.041 1231.9 494.226 1233.43 494.276C1234.32 494.276 1234.91 493.93 1235.11 493.189L1237.38 493.387ZM1235.16 489.98C1235.41 487.708 1232.34 486.869 1231.7 488.943C1231.6 489.239 1231.5 489.584 1231.5 489.98H1235.16Z" fill="#333333"/>
<path d="M185 445.837V574.167" stroke="#5E5E5E" stroke-width="2"/>
<path d="M184.98 444.837L186 444.797V445.857H184V444.757L184.98 444.837Z" fill="#5E5E5E" stroke="#5E5E5E" stroke-width="0.05"/>
<path d="M185 589.427L180.36 575.167H189.63L185 589.427Z" fill="#5E5E5E" stroke="#5E5E5E" stroke-width="2"/>
<path d="M225 592.667C225 614.767 207.1 632.667 185 632.667C162.9 632.667 145 614.767 145 592.667C145 570.567 162.9 552.667 185 552.667C207.1 552.667 225 570.567 225 592.667Z" fill="white" stroke="#5E5E5E" stroke-width="3"/>
<path d="M185.173 581.871C189.371 581.901 190.396 585.304 190.364 589.749C190.332 594.193 189.072 597.641 184.998 597.612C180.862 597.582 179.714 594.116 179.746 589.672C179.779 585.166 180.852 581.84 185.173 581.871ZM185.01 596.007C187.911 596.028 188.365 593.006 188.388 589.734C188.412 586.463 188.187 583.436 185.162 583.414C182.014 583.392 181.746 586.353 181.722 589.686C181.698 592.958 181.985 595.985 185.01 596.007Z" fill="#333333"/>
<path d="M541 592.667C541 614.767 523.1 632.667 501 632.667C478.9 632.667 461 614.767 461 592.667C461 570.567 478.9 552.667 501 552.667C523.1 552.667 541 570.567 541 592.667Z" fill="white" stroke="#5E5E5E" stroke-width="3"/>
<path d="M501.173 581.871C506.238 581.476 506.875 587.283 503.769 590.039L499.917 593.406C499.233 594.08 498.488 594.754 498.111 595.677L506.074 595.735L506.062 597.401L495.938 597.328C496.106 591.218 503.881 591.583 503.92 586.151C503.933 584.422 502.952 583.489 501.162 583.476C499.372 583.463 498.315 584.382 498.119 585.985L496.145 585.786C496.533 583.258 498.27 582.097 501.173 581.871Z" fill="#333333"/>
<path d="M857 592.667C857 614.767 839.1 632.667 817 632.667C794.9 632.667 777 614.767 777 592.667C777 570.567 794.9 552.667 817 552.667C839.1 552.667 857 570.567 857 592.667Z" fill="white" stroke="#5E5E5E" stroke-width="3"/>
<path d="M820.42 593.932L820.395 597.389L818.543 597.376L818.568 593.919L811.346 593.867L811.357 592.324L818.468 582.066L820.505 582.081L820.431 592.389L822.591 592.405L822.58 593.948L820.42 593.932ZM818.637 584.289C816.95 587.117 815.017 589.819 813.147 592.337L818.579 592.376L818.637 584.289Z" fill="#333333"/>
<path d="M1173 592.667C1173 614.767 1155.1 632.667 1133 632.667C1110.9 632.667 1093 614.767 1093 592.667C1093 570.567 1110.9 552.667 1133 552.667C1155.1 552.667 1173 570.567 1173 592.667Z" fill="white" stroke="#5E5E5E" stroke-width="3"/>
<path d="M1133.69 587.493C1136.65 587.576 1138.24 589.377 1138.22 592.402C1138.2 595.674 1136.45 597.637 1133.24 597.613C1129.23 597.584 1128.15 594.181 1127.99 590.044C1127.72 584.486 1131.15 580.067 1136.25 582.573C1137.12 583.011 1137.6 583.879 1137.9 584.992L1135.99 585.349C1135.7 582.877 1131.87 582.973 1130.93 584.942C1130.36 586.111 1129.98 587.651 1129.97 589.503C1130.66 588.273 1131.84 587.418 1133.69 587.493ZM1133.19 596.008C1135.29 596.023 1136.23 594.61 1136.25 592.45C1136.26 590.289 1135.28 588.986 1133.18 588.971C1131.39 588.958 1130.09 589.936 1130.14 591.973C1130.18 594.196 1131.03 595.992 1133.19 596.008Z" fill="#333333"/>
<path d="M501 445.837V532.667" stroke="#5E5E5E" stroke-width="2"/>
<path d="M500.98 444.837L502 444.797V445.857H500V444.757L500.98 444.837Z" fill="#5E5E5E" stroke="#5E5E5E" stroke-width="0.05"/>
<path d="M501 547.927L496.36 533.667H505.64L501 547.927Z" fill="#5E5E5E" stroke="#5E5E5E" stroke-width="2"/>
<path d="M817 445.837V532.667" stroke="#5E5E5E" stroke-width="2"/>
<path d="M816.98 444.837L818 444.797V445.857H816V444.757L816.98 444.837Z" fill="#5E5E5E" stroke="#5E5E5E" stroke-width="0.05"/>
<path d="M817 547.927L812.36 533.667H821.64L817 547.927Z" fill="#5E5E5E" stroke="#5E5E5E" stroke-width="2"/>
<path d="M1133 445.837V532.667" stroke="#5E5E5E" stroke-width="2"/>
<path d="M1132.98 444.837L1134 444.797V445.857H1132V444.757L1132.98 444.837Z" fill="#5E5E5E" stroke="#5E5E5E" stroke-width="0.05"/>
<path d="M1133 547.927L1128.36 533.667H1137.64L1133 547.927Z" fill="#5E5E5E" stroke="#5E5E5E" stroke-width="2"/>
<path d="M1133.98 635.187L1133.93 637.337L1133.73 640.417L1133.43 643.417L1132.99 646.317L1132.44 649.187L1131.78 651.987L1131 654.757L1130.1 657.477L1129.1 660.177L1127.98 662.857L1126.73 665.517L1125.33 668.167L1123.83 670.817L1122.13 673.467L1120.29 676.127L1118.27 678.797L1116.05 681.477L1113.61 684.197L1110.94 686.917L1108.01 689.677L1104.78 692.457L1101.23 695.257L1097.33 698.107L1093.01 700.967L1088.25 703.837L1082.99 706.737L1077.19 709.607L1070.77 712.457L1063.67 715.257L1055.87 717.957L1047.32 720.557L1037.98 722.957L1027.86 725.087L1017.01 726.927L1005.51 728.377L1001.11 728.747V726.727L1005.31 726.367L1016.71 724.937L1027.48 723.107L1037.52 720.977L1046.78 718.597L1055.26 716.047L1062.98 713.367L1069.98 710.597L1076.33 707.777L1082.07 704.927L1087.24 702.077L1091.94 699.247L1096.17 696.427L1100.01 693.627L1103.49 690.887L1106.65 688.157L1109.52 685.457L1112.14 682.807L1114.52 680.157L1116.68 677.537L1118.68 674.937L1120.48 672.357L1122.1 669.777L1123.6 667.197L1124.94 664.627L1126.14 662.027L1127.24 659.427L1128.22 656.827L1129.08 654.167L1129.83 651.497L1130.47 648.767L1130.99 645.997L1131.41 643.157L1131.71 640.237L1131.91 637.237L1131.95 635.137L1133.98 635.187ZM820.88 654.187L821.75 656.817L822.73 659.447L823.83 662.047L825.03 664.627L826.39 667.207L827.86 669.777L829.5 672.377L831.3 674.957L833.28 677.557L835.45 680.177L837.83 682.817L840.43 685.487L843.31 688.187L846.48 690.917L849.96 693.677L853.8 696.457L858.03 699.257L862.73 702.107L867.9 704.957L873.64 707.797L879.98 710.617L886.98 713.387L894.7 716.087L903.18 718.647L912.44 721.017L922.47 723.147L933.23 724.967L944.63 726.407L948.87 726.767V728.767L944.43 728.397L932.93 726.957L922.09 725.127L911.97 722.977L902.63 720.577L894.08 717.997L886.28 715.297L879.18 712.497L872.76 709.627L866.96 706.747L861.7 703.847L856.94 700.977L852.64 698.117L848.72 695.277L845.18 692.477L841.95 689.677L839.02 686.927L836.35 684.207L833.91 681.507L831.69 678.827L829.69 676.157L827.83 673.507L826.15 670.857L824.62 668.207L823.24 665.557L821.98 662.897L820.85 660.197L819.85 657.497L818.95 654.797L818.39 652.757L820.33 652.227L820.88 654.187Z" fill="#5E5E5E" stroke="#5E5E5E" stroke-width="0.05"/>
<path d="M1132.98 634.167L1134 634.137L1133.98 635.217L1131.98 635.177L1132 634.117L1132.98 634.167Z" fill="#5E5E5E"/>
<path d="M1132.98 634.147L1134.03 634.107L1134 635.247L1131.95 635.197L1131.98 634.077L1132.98 634.147ZM1132 635.147L1133.95 635.197L1133.97 634.157L1132.97 634.187L1132.02 634.127L1132 635.147Z" fill="#5E5E5E" stroke="#5E5E5E" stroke-width="0.05"/>
<path d="M823.85 650.927L814.65 652.127L817.42 637.377L823.85 650.927Z" fill="#5E5E5E"/>
<path d="M825.35 651.737L813.42 653.287L817 634.167L825.35 651.737ZM815.9 650.937L822.36 650.117L817.83 640.587L815.9 650.937Z" fill="#5E5E5E" stroke="#5E5E5E" stroke-width="0.05"/>
<path d="M960.231 732.459L960.33 722.386L957.17 732.459H955.343L952.232 722.386L952.331 732.459H950.059V720.213H953.516L956.281 729.348L959.096 720.213H962.503V732.459H960.231Z" fill="#333333"/>
<path d="M972.774 730.089C972.132 731.57 970.947 732.706 968.725 732.657C965.762 732.558 964.33 730.83 964.33 727.719C964.33 724.608 965.812 722.879 968.775 722.879C971.836 722.879 972.873 725.101 972.923 728.212H966.898C966.898 729.743 967.293 730.928 968.824 730.978C969.713 730.978 970.305 730.632 970.503 729.891L972.774 730.089ZM970.552 726.682C970.799 724.41 967.738 723.571 967.096 725.645C966.997 725.941 966.898 726.287 966.898 726.682H970.552Z" fill="#333333"/>
<path d="M980.182 725.052C978.257 724.46 977.22 725.694 977.22 727.867V732.459H974.751L974.701 723.077H977.022C977.121 723.719 976.973 724.509 977.17 725.052C977.466 723.67 978.503 722.435 980.182 723.028V725.052Z" fill="#333333"/>
<path d="M990.059 732.163C990.602 736.508 984.134 737.397 981.961 734.731C981.763 734.434 981.665 734.089 981.566 733.694L983.985 733.397C984.134 734.187 984.776 734.582 985.664 734.632C987.64 734.632 987.738 732.805 987.64 730.731C987.096 731.817 986.158 732.459 984.627 732.459C982.01 732.459 981.171 730.336 981.171 727.669C981.171 724.904 982.06 722.929 984.776 722.879C986.257 722.879 987.047 723.571 987.689 724.558L987.788 723.077H990.109L990.059 732.163ZM985.615 730.731C987.195 730.731 987.64 729.398 987.64 727.62C987.64 725.892 987.195 724.558 985.664 724.558C984.084 724.558 983.739 725.99 983.689 727.669C983.689 729.447 984.134 730.731 985.615 730.731Z" fill="#333333"/>
<path d="M1000.38 730.089C999.737 731.57 998.552 732.706 996.33 732.657C993.367 732.558 991.935 730.83 991.935 727.719C991.935 724.608 993.417 722.879 996.38 722.879C999.441 722.879 1000.48 725.101 1000.53 728.212H994.503C994.503 729.743 994.898 730.928 996.429 730.978C997.318 730.978 997.91 730.632 998.108 729.891L1000.38 730.089ZM998.157 726.682C998.404 724.41 995.343 723.571 994.701 725.645C994.602 725.941 994.503 726.287 994.503 726.682H998.157Z" fill="#333333"/>
<path d="M501.98 635.187L501.93 637.337L501.73 640.417L501.43 643.417L500.99 646.317L500.44 649.187L499.78 651.987L499 654.757L498.1 657.477L497.1 660.177L495.98 662.857L494.73 665.517L493.33 668.167L491.83 670.817L490.13 673.467L488.29 676.127L486.27 678.797L484.05 681.477L481.61 684.197L478.94 686.917L476.01 689.677L472.78 692.457L469.23 695.257L465.33 698.107L461.01 700.967L456.25 703.837L450.99 706.737L445.19 709.607L438.77 712.457L431.67 715.257L423.87 717.957L415.32 720.557L405.98 722.957L395.86 725.087L385.01 726.927L373.51 728.377L369.11 728.747V726.727L373.31 726.367L384.71 724.937L395.49 723.107L405.53 720.977L414.79 718.597L423.27 716.047L430.99 713.367L437.99 710.597L444.34 707.777L450.08 704.927L455.25 702.077L459.95 699.247L464.18 696.427L468.02 693.627L471.5 690.887L474.66 688.157L477.53 685.457L480.15 682.807L482.53 680.157L484.69 677.537L486.69 674.937L488.49 672.357L490.11 669.777L491.61 667.197L492.95 664.627L494.17 662.027L495.27 659.427L496.23 656.827L497.09 654.167L497.84 651.497L498.48 648.767L499 645.997L499.42 643.157L499.72 640.237L499.92 637.237L499.96 635.137L501.98 635.187ZM188.88 654.187L189.75 656.817L190.73 659.447L191.83 662.047L193.03 664.627L194.38 667.207L195.88 669.777L197.51 672.377L199.31 674.957L201.29 677.557L203.46 680.177L205.84 682.817L208.44 685.487L211.32 688.187L214.49 690.917L217.97 693.677L221.81 696.457L226.04 699.257L230.74 702.107L235.91 704.957L241.64 707.797L247.99 710.617L254.99 713.387L262.71 716.087L271.19 718.647L280.45 721.017L290.48 723.147L301.24 724.967L312.64 726.407L316.88 726.767V728.767L312.44 728.397L300.94 726.957L290.11 725.127L279.99 722.977L270.65 720.577L262.1 717.997L254.3 715.297L247.2 712.497L240.78 709.627L234.98 706.747L229.72 703.847L224.96 700.977L220.66 698.117L216.74 695.277L213.2 692.477L209.97 689.677L207.04 686.927L204.37 684.207L201.93 681.507L199.71 678.827L197.71 676.157L195.85 673.507L194.17 670.857L192.64 668.207L191.26 665.557L190 662.897L188.87 660.197L187.87 657.497L186.97 654.797L186.41 652.757L188.35 652.227L188.88 654.187Z" fill="#5E5E5E" stroke="#5E5E5E" stroke-width="0.05"/>
<path d="M500.98 634.167L502 634.137L501.98 635.217L499.98 635.177L500 634.117L500.98 634.167Z" fill="#5E5E5E"/>
<path d="M500.98 634.147L502.03 634.107L502 635.247L499.95 635.197L499.98 634.077L500.98 634.147ZM500 635.147L501.95 635.197L501.97 634.157L500.97 634.187L500.03 634.127L500 635.147Z" fill="#5E5E5E" stroke="#5E5E5E" stroke-width="0.05"/>
<path d="M191.85 650.927L182.65 652.127L185.42 637.377L191.85 650.927Z" fill="#5E5E5E"/>
<path d="M193.35 651.737L181.42 653.287L185 634.167L193.35 651.737ZM183.9 650.937L190.36 650.117L185.83 640.587L183.9 650.937Z" fill="#5E5E5E" stroke="#5E5E5E" stroke-width="0.05"/>
<path d="M328.231 732.459L328.33 722.386L325.17 732.459H323.343L320.232 722.386L320.331 732.459H318.059V720.213H321.516L324.281 729.348L327.096 720.213H330.503V732.459H328.231Z" fill="#333333"/>
<path d="M340.774 730.089C340.132 731.57 338.947 732.706 336.725 732.657C333.762 732.558 332.33 730.83 332.33 727.719C332.33 724.608 333.812 722.879 336.775 722.879C339.836 722.879 340.873 725.101 340.922 728.212H334.898C334.898 729.743 335.293 730.928 336.824 730.978C337.713 730.978 338.305 730.632 338.503 729.891L340.774 730.089ZM338.552 726.682C338.799 724.41 335.738 723.571 335.096 725.645C334.997 725.941 334.898 726.287 334.898 726.682H338.552Z" fill="#333333"/>
<path d="M348.182 725.052C346.256 724.46 345.219 725.694 345.219 727.867V732.459H342.75L342.701 723.077H345.022C345.121 723.719 344.973 724.509 345.17 725.052C345.466 723.67 346.503 722.435 348.182 723.028V725.052Z" fill="#333333"/>
<path d="M358.059 732.163C358.602 736.508 352.133 737.397 349.961 734.731C349.763 734.434 349.664 734.089 349.566 733.694L351.985 733.397C352.133 734.187 352.775 734.582 353.664 734.632C355.639 734.632 355.738 732.805 355.639 730.731C355.096 731.817 354.158 732.459 352.627 732.459C350.01 732.459 349.171 730.336 349.171 727.669C349.171 724.904 350.059 722.929 352.775 722.879C354.257 722.879 355.047 723.571 355.689 724.558L355.788 723.077H358.108L358.059 732.163ZM353.615 730.731C355.195 730.731 355.639 729.398 355.639 727.62C355.639 725.892 355.195 724.558 353.664 724.558C352.084 724.558 351.738 725.99 351.689 727.669C351.689 729.447 352.133 730.731 353.615 730.731Z" fill="#333333"/>
<path d="M368.379 730.089C367.737 731.57 366.552 732.706 364.33 732.657C361.367 732.558 359.935 730.83 359.935 727.719C359.935 724.608 361.417 722.879 364.38 722.879C367.441 722.879 368.478 725.101 368.527 728.212H362.503C362.503 729.743 362.898 730.928 364.429 730.978C365.318 730.978 365.91 730.632 366.108 729.891L368.379 730.089ZM366.157 726.682C366.404 724.41 363.343 723.571 362.701 725.645C362.602 725.941 362.503 726.287 362.503 726.682H366.157Z" fill="#333333"/>
<path d="M225 812.667C225 834.767 207.1 852.667 185 852.667C162.9 852.667 145 834.767 145 812.667C145 790.567 162.9 772.667 185 772.667C207.1 772.667 225 790.567 225 812.667Z" fill="white" stroke="#5E5E5E" stroke-width="3"/>
<path d="M185.173 801.871C189.371 801.901 190.396 805.304 190.364 809.749C190.332 814.193 189.072 817.641 184.998 817.612C180.862 817.582 179.714 814.116 179.746 809.672C179.779 805.166 180.852 801.84 185.173 801.871ZM185.01 816.007C187.911 816.028 188.365 813.006 188.388 809.734C188.412 806.463 188.187 803.436 185.162 803.414C182.014 803.392 181.746 806.353 181.722 809.686C181.698 812.958 181.985 815.985 185.01 816.007Z" fill="#333333"/>
<path d="M857 812.667C857 834.767 839.1 852.667 817 852.667C794.9 852.667 777 834.767 777 812.667C777 790.567 794.9 772.667 817 772.667C839.1 772.667 857 790.567 857 812.667Z" fill="white" stroke="#5E5E5E" stroke-width="3"/>
<path d="M820.42 813.932L820.395 817.389L818.543 817.376L818.568 813.919L811.346 813.867L811.357 812.324L818.468 802.066L820.505 802.081L820.431 812.389L822.591 812.405L822.58 813.948L820.42 813.932ZM818.637 804.289C816.95 807.117 815.017 809.819 813.147 812.337L818.579 812.376L818.637 804.289Z" fill="#333333"/>
<path d="M817 635.167V752.667" stroke="#5E5E5E" stroke-width="2"/>
<path d="M816.98 634.167L818 634.137V635.197H816V634.097L816.98 634.167Z" fill="#5E5E5E" stroke="#5E5E5E" stroke-width="0.05"/>
<path d="M817 767.927L812.36 753.667H821.64L817 767.927Z" fill="#5E5E5E" stroke="#5E5E5E" stroke-width="2"/>
<path d="M185 635.167V752.667" stroke="#5E5E5E" stroke-width="2"/>
<path d="M184.98 634.167L186 634.137V635.197H184V634.097L184.98 634.167Z" fill="#5E5E5E" stroke="#5E5E5E" stroke-width="0.05"/>
<path d="M185 767.927L180.36 753.667H189.63L185 767.927Z" fill="#5E5E5E" stroke="#5E5E5E" stroke-width="2"/>
<path d="M817.98 855.197L817.88 860.467L817.48 866.567L816.86 872.517L816 878.317L814.92 883.997L813.62 889.577L812.08 895.077L810.32 900.477L808.32 905.847L806.09 911.147L803.59 916.447L800.84 921.707L797.8 926.967L794.47 932.217L790.8 937.497L786.78 942.797L782.36 948.137L777.52 953.507L772.2 958.937L766.37 964.417L759.95 969.947L752.89 975.547L745.09 981.197L736.51 986.897L727.03 992.637L716.55 998.387L704.97 1004.14L692.17 1009.84L678.03 1015.42L662.47 1020.84L645.39 1025.99L626.75 1030.77L606.55 1035.05L584.91 1038.71L561.96 1041.61L538 1043.61L527.12 1044.07V1042.07L537.88 1041.62L561.76 1039.62L584.63 1036.72L606.2 1033.09L626.3 1028.82L644.86 1024.06L661.86 1018.93L677.36 1013.53L691.4 1007.98L704.13 1002.32L715.63 996.617L726.03 990.887L735.45 985.187L743.95 979.547L751.68 973.927L758.68 968.387L765.03 962.907L770.81 957.487L776.07 952.117L780.87 946.817L785.22 941.537L789.22 936.287L792.82 931.087L796.12 925.887L799.12 920.707L801.82 915.507L804.29 910.307L806.49 905.067L808.45 899.787L810.19 894.457L811.69 889.057L812.99 883.557L814.05 877.957L814.9 872.237L815.5 866.377L815.9 860.357L816 855.127L817.98 855.197ZM187.98 877.967L189.03 883.567L190.33 889.067L191.83 894.467L193.56 899.807L195.53 905.087L197.73 910.327L200.18 915.527L202.88 920.727L205.88 925.907L209.18 931.107L212.8 936.307L216.78 941.547L221.14 946.817L225.94 952.117L231.18 957.497L236.95 962.917L243.31 968.397L250.31 973.937L258.01 979.537L266.54 985.197L275.94 990.897L286.34 996.597L297.86 1002.3L310.58 1007.98L324.63 1013.55L340.11 1018.93L357.11 1024.06L375.66 1028.82L395.76 1033.09L417.33 1036.74L440.19 1039.64L464.07 1041.64L474.87 1042.09V1044.09L463.94 1043.63L439.98 1041.63L417.04 1038.73L395.39 1035.06L375.19 1030.78L356.57 1025.98L339.49 1020.84L323.93 1015.42L309.8 1009.82L297 1004.14L285.4 998.387L274.94 992.637L265.46 986.907L256.86 981.207L249.09 975.557L242.02 969.957L235.62 964.417L229.77 958.937L224.47 953.517L219.61 948.137L215.21 942.807L211.17 937.507L207.51 932.227L204.17 926.967L201.13 921.707L198.38 916.437L195.88 911.157L193.65 905.837L191.65 900.487L189.9 895.067L188.36 889.567L187.06 884.007L185.96 878.327L185.16 872.787L187.14 872.487L187.98 877.967Z" fill="#5E5E5E" stroke="#5E5E5E" stroke-width="0.05"/>
<path d="M816.98 854.167L818 854.137L817.98 855.217L815.98 855.177L816 854.117L816.98 854.167Z" fill="#5E5E5E"/>
<path d="M816.98 854.147L818.03 854.107L818 855.247L815.95 855.207L815.98 854.077L816.98 854.147ZM816 855.147L817.95 855.197L817.97 854.157L816.97 854.187L816.03 854.127L816 855.147Z" fill="#5E5E5E" stroke="#5E5E5E" stroke-width="0.05"/>
<path d="M190.73 871.347L181.48 871.927L185.2 857.397L190.73 871.347Z" fill="#5E5E5E"/>
<path d="M192.17 872.267L180.17 873.017L185 854.167L192.17 872.267ZM182.79 870.847L189.29 870.427L185.39 860.627L182.79 870.847Z" fill="#5E5E5E" stroke="#5E5E5E" stroke-width="0.05"/>
<path d="M486.229 1047.19L486.328 1037.12L483.168 1047.19H481.341L478.23 1037.12L478.329 1047.19H476.057V1034.95H479.514L482.279 1044.08L485.094 1034.95H488.501V1047.19H486.229Z" fill="#333333"/>
<path d="M498.772 1044.82C498.13 1046.31 496.945 1047.44 494.723 1047.39C491.76 1047.29 490.328 1045.56 490.328 1042.45C490.328 1039.34 491.81 1037.61 494.773 1037.61C497.834 1037.61 498.871 1039.84 498.92 1042.95H492.896C492.896 1044.48 493.291 1045.66 494.822 1045.71C495.711 1045.71 496.303 1045.37 496.501 1044.63L498.772 1044.82ZM496.55 1041.42C496.797 1039.15 493.736 1038.31 493.094 1040.38C492.995 1040.68 492.896 1041.02 492.896 1041.42H496.55Z" fill="#333333"/>
<path d="M506.18 1039.79C504.255 1039.19 503.218 1040.43 503.218 1042.6V1047.19H500.749L500.699 1037.81H503.02C503.119 1038.45 502.971 1039.24 503.168 1039.79C503.464 1038.4 504.501 1037.17 506.18 1037.76V1039.79Z" fill="#333333"/>
<path d="M516.057 1046.9C516.6 1051.24 510.132 1052.13 507.959 1049.47C507.761 1049.17 507.663 1048.82 507.564 1048.43L509.983 1048.13C510.132 1048.92 510.773 1049.32 511.662 1049.37C513.637 1049.37 513.736 1047.54 513.637 1045.47C513.094 1046.55 512.156 1047.19 510.625 1047.19C508.008 1047.19 507.169 1045.07 507.169 1042.4C507.169 1039.64 508.058 1037.66 510.773 1037.61C512.255 1037.61 513.045 1038.31 513.687 1039.29L513.786 1037.81H516.106L516.057 1046.9ZM511.613 1045.47C513.193 1045.47 513.637 1044.13 513.637 1042.35C513.637 1040.63 513.193 1039.29 511.662 1039.29C510.082 1039.29 509.736 1040.73 509.687 1042.4C509.687 1044.18 510.132 1045.47 511.613 1045.47Z" fill="#333333"/>
<path d="M526.377 1044.82C525.735 1046.31 524.55 1047.44 522.328 1047.39C519.365 1047.29 517.933 1045.56 517.933 1042.45C517.933 1039.34 519.415 1037.61 522.378 1037.61C525.439 1037.61 526.476 1039.84 526.525 1042.95H520.501C520.501 1044.48 520.896 1045.66 522.427 1045.71C523.316 1045.71 523.908 1045.37 524.106 1044.63L526.377 1044.82ZM524.155 1041.42C524.402 1039.15 521.341 1038.31 520.699 1040.38C520.6 1040.68 520.501 1041.02 520.501 1041.42H524.155Z" fill="#333333"/>
<path d="M185 855.167V1007.33" stroke="#5E5E5E" stroke-width="2"/>
<path d="M184.98 854.167L186 854.137V855.197H184V854.097L184.98 854.167Z" fill="#5E5E5E" stroke="#5E5E5E" stroke-width="0.05"/>
<path d="M185 1022.6L180.36 1008.33H189.63L185 1022.6Z" fill="#5E5E5E" stroke="#5E5E5E" stroke-width="2"/>
<path d="M25.1733 393.162C29.3708 393.193 30.3957 396.595 30.3637 401.04C30.3316 405.484 29.0721 408.932 24.9981 408.903C20.8623 408.873 19.7143 405.407 19.7464 400.963C19.7789 396.457 20.8523 393.131 25.1733 393.162ZM25.0096 407.298C27.9109 407.319 28.3648 404.297 28.3884 401.025C28.4119 397.754 28.1868 394.727 25.1621 394.705C22.014 394.683 21.7457 397.644 21.7217 400.977C21.6981 404.249 21.9849 407.276 25.0096 407.298Z" fill="#333333"/>
<path d="M20.4937 597.957L20.5057 596.29L24.4563 596.319L24.5408 584.59L21.0667 586.973L21.0796 585.183L24.6781 582.678L26.4682 582.691L26.3699 596.333L30.1353 596.36L30.1233 598.026L20.4937 597.957Z" fill="#333333"/>
<path d="M25.1732 802.496C30.2381 802.101 30.8753 807.908 27.7688 810.664L23.9172 814.031C23.2333 814.705 22.4877 815.379 22.1106 816.302L30.0736 816.36L30.0616 818.026L19.9381 817.953C20.1056 811.843 27.8812 812.208 27.9203 806.776C27.9328 805.047 26.9518 804.114 25.1617 804.101C23.3716 804.088 22.3155 805.007 22.1187 806.61L20.1448 806.411C20.5334 803.883 22.2702 802.722 25.1732 802.496Z" fill="#333333"/>
<path d="M25.4205 1072.2C24.483 1072.2 23.6473 1072.04 22.9134 1071.72C22.1842 1071.39 21.6042 1070.95 21.1733 1070.37C20.7472 1069.8 20.5152 1069.13 20.4773 1068.36H22.267C22.3049 1068.83 22.4659 1069.24 22.75 1069.58C23.0341 1069.91 23.4058 1070.17 23.8651 1070.36C24.3243 1070.54 24.8333 1070.64 25.392 1070.64C26.017 1070.64 26.571 1070.53 27.054 1070.31C27.5369 1070.09 27.9157 1069.79 28.1903 1069.4C28.465 1069.01 28.6023 1068.56 28.6023 1068.05C28.6023 1067.52 28.4697 1067.04 28.2045 1066.64C27.9394 1066.23 27.5511 1065.9 27.0398 1065.67C26.5284 1065.44 25.9034 1065.32 25.1648 1065.32H24V1063.76H25.1648C25.7424 1063.76 26.2491 1063.66 26.6847 1063.45C27.125 1063.24 27.4683 1062.95 27.7145 1062.57C27.9654 1062.19 28.0909 1061.74 28.0909 1061.23C28.0909 1060.74 27.982 1060.31 27.7642 1059.95C27.5464 1059.58 27.2386 1059.3 26.8409 1059.1C26.4479 1058.89 25.9839 1058.79 25.4489 1058.79C24.947 1058.79 24.4735 1058.88 24.0284 1059.07C23.5881 1059.25 23.2282 1059.51 22.9489 1059.86C22.6695 1060.2 22.518 1060.61 22.4943 1061.09H20.7898C20.8182 1060.33 21.0478 1059.66 21.4787 1059.09C21.9096 1058.51 22.473 1058.06 23.169 1057.74C23.8698 1057.42 24.6392 1057.26 25.4773 1057.26C26.3769 1057.26 27.1487 1057.44 27.7926 1057.8C28.4366 1058.16 28.9313 1058.64 29.277 1059.23C29.6226 1059.82 29.7955 1060.46 29.7955 1061.15C29.7955 1061.97 29.58 1062.67 29.1491 1063.24C28.723 1063.82 28.143 1064.22 27.4091 1064.44V1064.56C28.3277 1064.71 29.045 1065.1 29.5611 1065.73C30.0772 1066.35 30.3352 1067.13 30.3352 1068.05C30.3352 1068.84 30.1198 1069.55 29.6889 1070.18C29.2628 1070.81 28.6804 1071.3 27.9418 1071.66C27.2031 1072.02 26.3627 1072.2 25.4205 1072.2Z" fill="#333333"/>
<path d="M0.338854 353.959L0.449203 338.65L2.48624 338.665L2.3879 352.307L10.104 352.362L10.0919 354.029L0.338854 353.959Z" fill="#333333"/>
<path d="M17.006 341.969C20.895 341.969 22.3148 344.562 22.1913 348.513H13.8578C13.8578 350.982 14.722 352.649 17.1295 352.71C18.7344 352.772 19.7839 351.969 20.1542 350.92L21.8827 351.414C21.2036 353.142 19.5987 354.192 17.1295 354.192C13.5491 354.192 11.6972 351.908 11.759 348.019C11.8207 344.253 13.3639 341.969 17.006 341.969ZM20.216 346.969C20.5863 343.266 15.5245 342.216 14.2282 345.241C14.043 345.673 13.8578 346.29 13.8578 346.969H20.216Z" fill="#333333"/>
<path d="M29.8448 353.945H27.4991L23.2397 342.216H25.3386L28.672 352.402L32.1289 342.216H34.2277" fill="#333333"/>
<path d="M40.462 341.969C44.351 341.969 45.7708 344.562 45.6473 348.513H37.3138C37.3138 350.982 38.178 352.649 40.5855 352.71C42.1904 352.772 43.2398 351.969 43.6102 350.92L45.3387 351.414C44.6596 353.142 43.0547 354.192 40.5855 354.192C37.0051 354.192 35.1532 351.908 35.2149 348.019C35.2767 344.253 36.8199 341.969 40.462 341.969ZM43.672 346.969C44.0423 343.266 38.9805 342.216 37.6841 345.241C37.499 345.673 37.3138 346.29 37.3138 346.969H43.672Z" fill="#333333"/>
<path d="M48.1165 353.945V337.833H50.0919V353.945H48.1165Z" fill="#333333"/>
<path d="M796.4 1.99707C817.9 1.99707 835.33 19.8971 835.33 41.9971C835.33 64.0971 817.9 81.9971 796.4 81.9971H679.6C658.1 81.9971 640.67 64.0971 640.67 41.9971C640.67 19.8971 658.1 1.99707 679.6 1.99707H796.4Z" fill="white" stroke="#5E5E5E" stroke-width="3"/>
<path d="M687.973 35.0687C687.686 32.1035 680.404 31.6807 680.318 35.137C681.148 39.7729 690.064 36.0715 690.326 42.5552C690.477 47.3714 682.819 47.8717 679.499 45.8724C678.455 45.2476 677.783 44.255 677.483 43.0182L679.523 42.6008C679.807 46.0598 688.199 46.5524 688.227 42.6018C688.262 37.787 678.666 41.6686 678.28 35.2458C678.008 30.1818 687.268 30.1251 689.344 33.2267C689.65 33.661 689.831 34.2179 690.012 34.7748" fill="#333333"/>
<path d="M697.457 34.6772C701.346 34.6772 702.766 37.2699 702.642 41.2206H694.309C694.309 43.6898 695.173 45.3565 697.58 45.4183C699.185 45.48 700.235 44.6775 700.605 43.6281L702.334 44.1219C701.655 45.8504 700.05 46.8998 697.58 46.8998C694 46.8998 692.148 44.6158 692.21 40.7268C692.272 36.9613 693.815 34.6772 697.457 34.6772ZM700.667 39.6774C701.037 35.9736 695.975 34.9242 694.679 37.9489C694.494 38.381 694.309 38.9983 694.309 39.6774H700.667Z" fill="#333333"/>
<path d="M707.271 43.7518C707.148 45.2333 708.382 45.542 709.617 45.1099V46.5914C707.58 47.2087 705.296 46.9 705.296 44.1839V36.3442H703.938V34.9244H705.419L705.975 32.27H707.271V34.9244H709.432V36.3442H707.271V43.7518Z" fill="#333333"/>
<path d="M722.234 34.7221C726.062 34.688 727.465 37.0439 727.437 40.871C727.471 44.7604 725.726 46.9701 722.084 46.9439C718.442 46.9176 716.978 44.4996 716.943 40.7954C716.973 36.7213 718.716 34.6968 722.234 34.7221ZM722.095 45.4624C724.811 45.5437 725.38 43.5724 725.4 40.8564C725.419 38.202 724.94 36.2232 722.285 36.204C719.631 36.1849 718.999 38.1558 718.98 40.8101C718.961 43.4644 719.565 45.3824 722.095 45.4624Z" fill="#333333"/>
<path d="M734.556 32.2082C732.642 31.6527 731.963 32.8255 732.21 34.9243H734.556V36.3441H732.21V46.653H730.296V36.3441H728.63V34.9243H730.296C729.864 31.7144 731.346 29.8625 734.556 30.7267V32.2082Z" fill="#333333"/>
<path d="M747.851 34.7289C751.246 34.8151 752.154 37.2909 752.128 40.8095C752.103 44.328 751.097 46.8517 747.763 46.9511C745.849 46.9374 744.744 46.1269 744.074 44.8257L744.089 51.3076L742.114 51.2934L742.17 34.9349L744.084 34.9487L744.194 36.8014C744.821 35.5096 745.937 34.7151 747.851 34.7289ZM747.28 45.4661C749.749 45.4839 750.073 43.3874 750.091 40.8565C750.109 38.3256 749.753 36.3477 747.346 36.2686C744.754 36.2499 744.184 38.2212 744.164 40.9372C744.145 43.5916 744.749 45.4479 747.28 45.4661Z" fill="#333333"/>
<path d="M759.185 34.6775C763.012 34.6157 764.432 36.9615 764.432 40.7887C764.494 44.6777 762.765 46.9 759.123 46.9C755.481 46.9 754 44.4925 753.938 40.7887C753.938 36.7145 755.666 34.6775 759.185 34.6775ZM759.123 45.4185C761.839 45.4802 762.395 43.5048 762.395 40.7887C762.395 38.1343 761.901 36.159 759.247 36.159C756.592 36.159 755.975 38.1343 755.975 40.7887C755.975 43.4431 756.592 45.3567 759.123 45.4185Z" fill="#333333"/>
<path d="M766.839 32.3934V30.5415H768.814V32.3934H766.839ZM766.839 46.653V34.9243H768.814V46.653H766.839Z" fill="#333333"/>
<path d="M777.456 34.6774C782.95 34.4305 780.728 41.8381 781.16 46.653H779.185V39.1837C779.185 37.2701 778.691 36.1589 776.777 36.2207C772.333 36.3441 774.061 42.5171 773.753 46.653H771.777L771.716 34.9243H773.567C773.629 35.5416 773.506 36.4058 773.691 36.8997C774.37 35.5416 775.481 34.7391 777.456 34.6774Z" fill="#333333"/>
<path d="M786.222 43.7518C786.099 45.2333 787.333 45.542 788.568 45.1099V46.5914C786.531 47.2087 784.247 46.9 784.247 44.1839V36.3442H782.889V34.9244H784.37L784.926 32.27H786.222V34.9244H788.383V36.3442H786.222V43.7518Z" fill="#333333"/>
<path d="M797.086 37.8254C796.9 35.7266 791.777 35.4797 791.715 37.8254C792.641 41.0971 798.814 38.5662 799.061 43.3811C799.308 48.1961 789.801 47.9492 789.369 43.875L791.098 43.5663C791.345 45.7886 797.086 46.3442 797.147 43.5663C796.53 40.1094 790.172 42.6404 789.863 38.0106C789.616 34.492 794.925 34.1216 797.394 35.418C798.135 35.8501 798.69 36.5908 798.876 37.5785" fill="#333333"/>
<path d="M225 224.667C225 246.767 207.1 264.667 185 264.667C162.9 264.667 145 246.767 145 224.667C145 202.567 162.9 184.667 185 184.667C207.1 184.667 225 202.567 225 224.667Z" fill="white" stroke="#5E5E5E" stroke-width="3"/>
<path d="M185.173 213.871C189.371 213.901 190.396 217.304 190.364 221.749C190.332 226.193 189.072 229.641 184.998 229.612C180.862 229.582 179.714 226.116 179.746 221.672C179.779 217.166 180.852 213.84 185.173 213.871ZM185.01 228.007C187.911 228.028 188.365 225.006 188.388 221.734C188.412 218.463 188.187 215.436 185.162 215.414C182.014 215.392 181.746 218.353 181.722 221.686C181.698 224.958 181.985 227.985 185.01 228.007Z" fill="#333333"/>
<path d="M383 224.667C383 246.767 365.1 264.667 343 264.667C320.9 264.667 303 246.767 303 224.667C303 202.567 320.9 184.667 343 184.667C365.1 184.667 383 202.567 383 224.667Z" fill="white" stroke="#5E5E5E" stroke-width="3"/>
<path d="M338.494 229.332L338.506 227.665L342.456 227.694L342.541 215.965L339.067 218.348L339.08 216.558L342.678 214.053L344.468 214.066L344.37 227.708L348.135 227.735L348.123 229.401L338.494 229.332Z" fill="#333333"/>
<path d="M541 224.667C541 246.767 523.1 264.667 501 264.667C478.9 264.667 461 246.767 461 224.667C461 202.567 478.9 184.667 501 184.667C523.1 184.667 541 202.567 541 224.667Z" fill="white" stroke="#5E5E5E" stroke-width="3"/>
<path d="M501.173 213.871C506.238 213.476 506.875 219.283 503.769 222.039L499.917 225.406C499.233 226.08 498.488 226.754 498.111 227.677L506.074 227.735L506.062 229.401L495.938 229.328C496.106 223.218 503.881 223.583 503.92 218.151C503.933 216.422 502.952 215.489 501.162 215.476C499.372 215.463 498.315 216.382 498.119 217.985L496.145 217.786C496.533 215.258 498.27 214.097 501.173 213.871Z" fill="#333333"/>
<path d="M699 224.667C699 246.767 681.1 264.667 659 264.667C636.9 264.667 619 246.767 619 224.667C619 202.567 636.9 184.667 659 184.667C681.1 184.667 699 202.567 699 224.667Z" fill="white" stroke="#5E5E5E" stroke-width="3"/>
<path d="M660.661 221.537C662.696 221.922 664.233 222.797 664.215 225.205C664.176 230.637 655.594 230.822 654.079 226.922C653.897 226.427 653.777 225.932 653.72 225.376L655.696 225.205C656.055 226.874 656.973 227.93 659.01 227.945C660.985 227.959 662.227 227.042 662.24 225.129C662.257 222.783 660.039 222.273 657.383 222.439L657.395 220.711C659.802 220.79 661.842 220.496 661.859 218.15C661.871 216.483 660.828 215.488 659.038 215.475C657.31 215.463 656.13 216.38 655.995 217.984L654.021 217.785C654.41 215.195 656.21 213.912 659.05 213.87C662.013 213.83 663.917 215.202 663.897 217.918C663.881 220.14 662.578 221.118 660.661 221.537Z" fill="#333333"/>
<path d="M857 224.667C857 246.767 839.1 264.667 817 264.667C794.9 264.667 777 246.767 777 224.667C777 202.567 794.9 184.667 817 184.667C839.1 184.667 857 202.567 857 224.667Z" fill="white" stroke="#5E5E5E" stroke-width="3"/>
<path d="M820.42 225.932L820.395 229.389L818.543 229.376L818.568 225.919L811.346 225.867L811.357 224.324L818.468 214.066L820.505 214.081L820.431 224.389L822.591 224.405L822.58 225.948L820.42 225.932ZM818.637 216.289C816.95 219.117 815.017 221.819 813.147 224.337L818.579 224.376L818.637 216.289Z" fill="#333333"/>
<path d="M1015 224.667C1015 246.767 997.1 264.667 975 264.667C952.9 264.667 935 246.767 935 224.667C935 202.567 952.9 184.667 975 184.667C997.1 184.667 1015 202.567 1015 224.667Z" fill="white" stroke="#5E5E5E" stroke-width="3"/>
<path d="M972.224 220.579C975.202 218.439 980.684 220.146 980.283 224.402C980.918 230.518 970.726 231.371 969.716 225.931L971.693 225.698C972.115 227.121 973.034 227.992 974.886 228.006C977.047 227.959 978.044 226.67 978.245 224.449C978.517 221.056 973.768 220.405 972.149 222.307L970.236 222.293L970.789 214.025L979.493 214.087L979.481 215.754L972.567 215.704" fill="#333333"/>
<path d="M1173 224.667C1173 246.767 1155.1 264.667 1133 264.667C1110.9 264.667 1093 246.767 1093 224.667C1093 202.567 1110.9 184.667 1133 184.667C1155.1 184.667 1173 202.567 1173 224.667Z" fill="white" stroke="#5E5E5E" stroke-width="3"/>
<path d="M1133.69 219.493C1136.65 219.576 1138.24 221.377 1138.22 224.402C1138.2 227.674 1136.45 229.637 1133.24 229.613C1129.23 229.584 1128.15 226.181 1127.99 222.044C1127.72 216.486 1131.15 212.067 1136.25 214.573C1137.12 215.011 1137.6 215.879 1137.9 216.992L1135.99 217.349C1135.7 214.877 1131.87 214.973 1130.93 216.942C1130.36 218.111 1129.98 219.651 1129.97 221.503C1130.66 220.273 1131.84 219.418 1133.69 219.493ZM1133.19 228.008C1135.29 228.023 1136.23 226.61 1136.25 224.45C1136.26 222.289 1135.28 220.986 1133.18 220.971C1131.39 220.958 1130.09 221.936 1130.14 223.973C1130.18 226.196 1131.03 227.992 1133.19 228.008Z" fill="#333333"/>
<path d="M1331 224.667C1331 246.767 1313.1 264.667 1291 264.667C1268.9 264.667 1251 246.767 1251 224.667C1251 202.567 1268.9 184.667 1291 184.667C1313.1 184.667 1331 202.567 1331 224.667Z" fill="white" stroke="#5E5E5E" stroke-width="3"/>
<path d="M1288.78 229.349C1289.01 223.301 1291.81 219.555 1294.31 215.746L1286.04 215.686L1286.05 214.02L1296.17 214.093L1296.16 215.697C1293.72 219.692 1290.92 223.129 1290.81 229.363L1288.78 229.349Z" fill="#333333"/>
<path d="M737 83.667L203.2 179.887" stroke="#5E5E5E" stroke-width="2"/>
<path d="M741.13 83.9471L737.17 84.6671L736.97 83.4971H741.05L741.13 83.9471Z" fill="#5E5E5E" stroke="#5E5E5E" stroke-width="0.05"/>
<path d="M188.18 182.597L201.4 175.497L203.05 184.627L188.18 182.597Z" fill="#5E5E5E" stroke="#5E5E5E" stroke-width="2"/>
<path d="M737.03 83.7471L360.93 178.647" stroke="#5E5E5E" stroke-width="2"/>
<path d="M741.15 83.7371L737.25 84.7171L736.95 83.4971H741.09L741.15 83.7371Z" fill="#5E5E5E" stroke="#5E5E5E" stroke-width="0.05"/>
<path d="M346.14 182.367L358.84 174.387L361.1 183.387L346.14 182.367Z" fill="#5E5E5E" stroke="#5E5E5E" stroke-width="2"/>
<path d="M737.08 83.8872L518.06 175.987" stroke="#5E5E5E" stroke-width="2"/>
<path d="M737.44 84.8171L736.89 83.4971H740.57L737.44 84.8171Z" fill="#5E5E5E" stroke="#5E5E5E" stroke-width="0.05"/>
<path d="M503.98 181.917L515.34 172.117L518.94 180.657L503.98 181.917Z" fill="#5E5E5E" stroke="#5E5E5E" stroke-width="2"/>
<path d="M737.38 84.2871L670.48 168.667" stroke="#5E5E5E" stroke-width="2"/>
<path d="M738.15 84.9273L736.58 83.6873L736.72 83.4873H739.28L738.15 84.9273Z" fill="#5E5E5E" stroke="#5E5E5E" stroke-width="0.05"/>
<path d="M661 180.627L666.24 166.567L673.5 172.327L661 180.627Z" fill="#5E5E5E" stroke="#5E5E5E" stroke-width="2"/>
<path d="M738.62 84.2871L805.52 168.667" stroke="#5E5E5E" stroke-width="2"/>
<path d="M739.42 83.6871L737.85 84.9271L736.72 83.4971H739.28L739.42 83.6871Z" fill="#5E5E5E" stroke="#5E5E5E" stroke-width="0.05"/>
<path d="M815 180.627L802.5 172.327L809.76 166.567L815 180.627Z" fill="#5E5E5E" stroke="#5E5E5E" stroke-width="2"/>
<path d="M738.92 83.8872L957.94 175.987" stroke="#5E5E5E" stroke-width="2"/>
<path d="M738.56 84.8171L735.42 83.4971H739.12L738.56 84.8171Z" fill="#5E5E5E" stroke="#5E5E5E" stroke-width="0.05"/>
<path d="M972.02 181.917L957.07 180.657L960.67 172.097L972.02 181.917Z" fill="#5E5E5E" stroke="#5E5E5E" stroke-width="2"/>
<path d="M738.97 83.7471L1115.07 178.647" stroke="#5E5E5E" stroke-width="2"/>
<path d="M738.75 84.7171L734.85 83.7371L734.91 83.4971H739.07L738.75 84.7171Z" fill="#5E5E5E" stroke="#5E5E5E" stroke-width="0.05"/>
<path d="M1129.86 182.367L1114.9 183.367L1117.16 174.387L1129.86 182.367Z" fill="#5E5E5E" stroke="#5E5E5E" stroke-width="2"/>
<path d="M738.98 83.667L1272.78 179.887" stroke="#5E5E5E" stroke-width="2"/>
<path d="M738.83 84.6671L734.87 83.9471L734.95 83.4971H739.05L738.83 84.6671Z" fill="#5E5E5E" stroke="#5E5E5E" stroke-width="0.05"/>
<path d="M1287.82 182.597L1272.95 184.627L1274.6 175.497L1287.82 182.597Z" fill="#5E5E5E" stroke="#5E5E5E" stroke-width="2"/>
<path d="M186 343.327H184V324.667H186V343.327ZM186 303.327H184V267.167H186V303.327Z" fill="#5E5E5E" stroke="#5E5E5E" stroke-width="0.05"/>
<path d="M184.98 266.167L186 266.137V267.197H184V266.097L184.98 266.167Z" fill="#5E5E5E"/>
<path d="M184.98 266.147L186.02 266.107V267.207H183.97V266.077L184.98 266.147ZM184.02 267.167H185.97V266.167L184.97 266.197L184.02 266.137V267.167Z" fill="#5E5E5E" stroke="#5E5E5E" stroke-width="0.05"/>
<path d="M185 358.597L180.36 344.327H189.63L185 358.597Z" fill="#5E5E5E"/>
<path d="M185 361.837L179 343.337H191L185 361.837ZM181.74 345.337L185 355.357L188.26 345.317L181.74 345.337Z" fill="#5E5E5E" stroke="#5E5E5E" stroke-width="0.05"/>
<path d="M146.802 317.556V304.668H149.271V317.556H146.802Z" fill="#333333"/>
<path d="M155.937 307.977C159.097 307.977 160.677 309.754 160.677 312.865C160.677 316.026 158.949 317.754 155.887 317.754C152.875 317.754 151.196 315.976 151.196 312.865C151.196 309.804 152.875 307.977 155.937 307.977ZM155.887 316.075C157.616 316.075 158.11 314.692 158.11 312.865C158.11 310.89 157.616 309.655 155.986 309.655C154.307 309.655 153.764 310.939 153.764 312.865C153.764 314.643 154.258 316.075 155.887 316.075Z" fill="#333333"/>
<path d="M170.702 314.445C170.357 316.519 168.826 317.754 166.456 317.754C163.542 317.754 162.308 315.877 162.011 312.914C161.419 307.483 169.616 306.149 170.603 311.137L168.184 311.236C168.085 310.297 167.443 309.655 166.456 309.655C164.974 309.655 164.727 311.038 164.579 312.816C164.283 316.47 167.789 317.112 168.233 314.297" fill="#333333"/>
<path d="M177.765 315.877C176.974 316.815 176.283 317.803 174.604 317.754C172.777 317.704 171.74 316.766 171.74 314.89C171.691 311.927 174.456 311.779 177.468 311.877C177.518 310.594 177.32 309.557 176.086 309.557C175.197 309.606 174.802 310.001 174.703 310.89L172.135 310.791C172.481 308.915 173.913 307.927 176.184 307.976C178.456 308.026 179.839 309.063 179.888 311.334L179.937 315.383C179.888 316.075 180.53 316.272 181.172 316.124V317.457C179.69 317.852 177.666 317.704 177.765 315.877ZM175.394 316.025C176.826 316.025 177.518 314.84 177.468 313.211C175.888 313.211 174.209 313.063 174.259 314.692C174.259 315.532 174.654 316.025 175.394 316.025Z" fill="#333333"/>
<path d="M182.308 317.556V304.668H184.777V317.556H182.308Z" fill="#333333"/>
<path d="M197.715 310.741C197.764 309.309 194.258 309.063 194.209 310.544C194.95 312.815 200.036 310.89 200.085 314.791C200.135 318.889 191.987 318.544 191.592 315.235L193.715 314.889C193.913 315.828 194.703 316.124 195.888 316.124C197.518 316.519 198.703 314.643 197.073 314.099C194.95 313.408 192.036 313.556 191.938 310.84C191.839 306.89 199.542 307.186 199.888 310.495" fill="#333333"/>
<path d="M206.259 307.976C209.419 307.976 210.999 309.754 210.999 312.865C210.999 316.025 209.271 317.753 206.209 317.753C203.197 317.753 201.518 315.976 201.518 312.865C201.518 309.803 203.197 307.976 206.259 307.976ZM206.209 316.074C207.938 316.074 208.432 314.692 208.432 312.865C208.432 310.889 207.938 309.655 206.308 309.655C204.629 309.655 204.086 310.939 204.086 312.865C204.086 314.642 204.58 316.074 206.209 316.074Z" fill="#333333"/>
<path d="M218.307 310.149C216.381 309.556 215.344 310.791 215.344 312.964V317.556H212.875L212.826 308.174H215.147C215.246 308.816 215.098 309.606 215.295 310.149C215.591 308.766 216.628 307.532 218.307 308.124V310.149Z" fill="#333333"/>
<path d="M224.234 317.408C222.456 318.099 219.938 317.753 219.938 315.334V309.803H218.753V308.174H220.086L220.826 305.952H222.357V308.174H224.135V309.803H222.357V314.692C222.308 315.828 223.147 316.223 224.234 315.926V317.408Z" fill="#333333"/>
<path d="M344 343.327H342V324.667H344V343.327ZM344 303.327H342V267.167H344V303.327Z" fill="#5E5E5E" stroke="#5E5E5E" stroke-width="0.05"/>
<path d="M342.98 266.167L344 266.137V267.197H342V266.097L342.98 266.167Z" fill="#5E5E5E"/>
<path d="M342.98 266.147L344.02 266.107V267.207H341.97V266.077L342.98 266.147ZM342.02 267.167H343.97V266.167L342.97 266.197L342.02 266.137V267.167Z" fill="#5E5E5E" stroke="#5E5E5E" stroke-width="0.05"/>
<path d="M343 358.597L338.36 344.327H347.63L343 358.597Z" fill="#5E5E5E"/>
<path d="M343 361.837L337 343.337H349L343 361.837ZM339.74 345.337L343 355.357L346.26 345.317L339.74 345.337Z" fill="#5E5E5E" stroke="#5E5E5E" stroke-width="0.05"/>
<path d="M304.801 317.556V304.668H307.27V317.556H304.801Z" fill="#333333"/>
<path d="M313.937 307.977C317.097 307.977 318.677 309.754 318.677 312.865C318.677 316.026 316.949 317.754 313.887 317.754C310.875 317.754 309.196 315.976 309.196 312.865C309.196 309.804 310.875 307.977 313.937 307.977ZM313.887 316.075C315.616 316.075 316.109 314.692 316.109 312.865C316.109 310.89 315.616 309.655 313.986 309.655C312.307 309.655 311.764 310.939 311.764 312.865C311.764 314.643 312.258 316.075 313.887 316.075Z" fill="#333333"/>
<path d="M328.702 314.445C328.357 316.519 326.826 317.754 324.456 317.754C321.542 317.754 320.308 315.877 320.011 312.914C319.419 307.483 327.616 306.149 328.603 311.137L326.184 311.236C326.085 310.297 325.443 309.655 324.456 309.655C322.974 309.655 322.727 311.038 322.579 312.816C322.283 316.47 325.789 317.112 326.233 314.297" fill="#333333"/>
<path d="M335.765 315.877C334.974 316.815 334.283 317.803 332.604 317.754C330.777 317.704 329.74 316.766 329.74 314.89C329.691 311.927 332.456 311.779 335.468 311.877C335.518 310.594 335.32 309.557 334.086 309.557C333.197 309.606 332.802 310.001 332.703 310.89L330.135 310.791C330.481 308.915 331.913 307.927 334.184 307.976C336.456 308.026 337.838 309.063 337.888 311.334L337.937 315.383C337.888 316.075 338.53 316.272 339.172 316.124V317.457C337.69 317.852 335.666 317.704 335.765 315.877ZM333.394 316.025C334.826 316.025 335.518 314.84 335.468 313.211C333.888 313.211 332.209 313.063 332.259 314.692C332.259 315.532 332.654 316.025 333.394 316.025Z" fill="#333333"/>
<path d="M340.307 317.556V304.668H342.776V317.556H340.307Z" fill="#333333"/>
<path d="M355.715 310.741C355.764 309.309 352.258 309.063 352.209 310.544C352.95 312.815 358.036 310.89 358.085 314.791C358.135 318.889 349.987 318.544 349.592 315.235L351.715 314.889C351.913 315.828 352.703 316.124 353.888 316.124C355.518 316.519 356.703 314.643 355.073 314.099C352.95 313.408 350.036 313.556 349.938 310.84C349.839 306.89 357.542 307.186 357.888 310.495" fill="#333333"/>
<path d="M364.259 307.976C367.419 307.976 368.999 309.754 368.999 312.865C368.999 316.025 367.271 317.753 364.209 317.753C361.197 317.753 359.518 315.976 359.518 312.865C359.518 309.803 361.197 307.976 364.259 307.976ZM364.209 316.074C365.938 316.074 366.432 314.692 366.432 312.865C366.432 310.889 365.938 309.655 364.308 309.655C362.629 309.655 362.086 310.939 362.086 312.865C362.086 314.642 362.58 316.074 364.209 316.074Z" fill="#333333"/>
<path d="M376.307 310.149C374.381 309.556 373.344 310.791 373.344 312.964V317.556H370.875L370.826 308.174H373.147C373.246 308.816 373.098 309.606 373.295 310.149C373.591 308.766 374.628 307.532 376.307 308.124V310.149Z" fill="#333333"/>
<path d="M382.234 317.408C380.456 318.099 377.938 317.753 377.938 315.334V309.803H376.753V308.174H378.086L378.826 305.952H380.357V308.174H382.135V309.803H380.357V314.692C380.308 315.828 381.147 316.223 382.234 315.926V317.408Z" fill="#333333"/>
<path d="M502 343.327H500V324.667H502V343.327ZM502 303.327H500V267.167H502V303.327Z" fill="#5E5E5E" stroke="#5E5E5E" stroke-width="0.05"/>
<path d="M500.98 266.167L502 266.137V267.197H500V266.097L500.98 266.167Z" fill="#5E5E5E"/>
<path d="M500.98 266.147L502.02 266.107V267.207H499.97V266.077L500.98 266.147ZM500.02 267.167H501.97V266.167L500.97 266.197L500.02 266.137V267.167Z" fill="#5E5E5E" stroke="#5E5E5E" stroke-width="0.05"/>
<path d="M501 358.597L496.36 344.327H505.64L501 358.597Z" fill="#5E5E5E"/>
<path d="M501 361.837L495 343.337H507L501 361.837ZM497.74 345.337L501 355.357L504.26 345.317L497.74 345.337Z" fill="#5E5E5E" stroke="#5E5E5E" stroke-width="0.05"/>
<path d="M462.802 317.556V304.668H465.271V317.556H462.802Z" fill="#333333"/>
<path d="M471.937 307.977C475.097 307.977 476.677 309.754 476.677 312.865C476.677 316.026 474.949 317.754 471.887 317.754C468.875 317.754 467.196 315.976 467.196 312.865C467.196 309.804 468.875 307.977 471.937 307.977ZM471.887 316.075C473.616 316.075 474.11 314.692 474.11 312.865C474.11 310.89 473.616 309.655 471.986 309.655C470.307 309.655 469.764 310.939 469.764 312.865C469.764 314.643 470.258 316.075 471.887 316.075Z" fill="#333333"/>
<path d="M486.702 314.445C486.357 316.519 484.826 317.754 482.456 317.754C479.542 317.754 478.308 315.877 478.011 312.914C477.419 307.483 485.616 306.149 486.603 311.137L484.184 311.236C484.085 310.297 483.443 309.655 482.456 309.655C480.974 309.655 480.727 311.038 480.579 312.816C480.283 316.47 483.789 317.112 484.233 314.297" fill="#333333"/>
<path d="M493.765 315.877C492.974 316.815 492.283 317.803 490.604 317.754C488.777 317.704 487.74 316.766 487.74 314.89C487.691 311.927 490.456 311.779 493.468 311.877C493.518 310.594 493.32 309.557 492.086 309.557C491.197 309.606 490.802 310.001 490.703 310.89L488.135 310.791C488.481 308.915 489.913 307.927 492.184 307.976C494.456 308.026 495.839 309.063 495.888 311.334L495.937 315.383C495.888 316.075 496.53 316.272 497.172 316.124V317.457C495.69 317.852 493.666 317.704 493.765 315.877ZM491.394 316.025C492.826 316.025 493.518 314.84 493.468 313.211C491.888 313.211 490.209 313.063 490.259 314.692C490.259 315.532 490.654 316.025 491.394 316.025Z" fill="#333333"/>
<path d="M498.307 317.556V304.668H500.776V317.556H498.307Z" fill="#333333"/>
<path d="M513.715 310.741C513.764 309.309 510.259 309.063 510.209 310.544C510.95 312.815 516.036 310.89 516.085 314.791C516.135 318.889 507.987 318.544 507.592 315.235L509.715 314.889C509.913 315.828 510.703 316.124 511.888 316.124C513.518 316.519 514.703 314.643 513.073 314.099C510.95 313.408 508.036 313.556 507.938 310.84C507.839 306.89 515.542 307.186 515.888 310.495" fill="#333333"/>
<path d="M522.259 307.976C525.419 307.976 526.999 309.754 526.999 312.865C526.999 316.025 525.271 317.753 522.209 317.753C519.197 317.753 517.518 315.976 517.518 312.865C517.518 309.803 519.197 307.976 522.259 307.976ZM522.209 316.074C523.938 316.074 524.432 314.692 524.432 312.865C524.432 310.889 523.938 309.655 522.308 309.655C520.629 309.655 520.086 310.939 520.086 312.865C520.086 314.642 520.58 316.074 522.209 316.074Z" fill="#333333"/>
<path d="M534.307 310.149C532.382 309.556 531.345 310.791 531.345 312.964V317.556H528.876L528.826 308.174H531.147C531.246 308.816 531.098 309.606 531.295 310.149C531.591 308.766 532.628 307.532 534.307 308.124V310.149Z" fill="#333333"/>
<path d="M540.234 317.408C538.456 318.099 535.938 317.753 535.938 315.334V309.803H534.753V308.174H536.086L536.827 305.952H538.357V308.174H540.135V309.803H538.357V314.692C538.308 315.828 539.147 316.223 540.234 315.926V317.408Z" fill="#333333"/>
<path d="M660 343.327H658V324.667H660V343.327ZM660 303.327H658V267.167H660V303.327Z" fill="#5E5E5E" stroke="#5E5E5E" stroke-width="0.05"/>
<path d="M658.98 266.167L660 266.137V267.197H658V266.097L658.98 266.167Z" fill="#5E5E5E"/>
<path d="M658.98 266.147L660.02 266.107V267.207H657.97V266.077L658.98 266.147ZM658.02 267.167H659.97V266.167L658.97 266.197L658.02 266.137V267.167Z" fill="#5E5E5E" stroke="#5E5E5E" stroke-width="0.05"/>
<path d="M659 358.597L654.36 344.327H663.64L659 358.597Z" fill="#5E5E5E"/>
<path d="M659 361.837L653 343.337H665L659 361.837ZM655.74 345.337L659 355.357L662.26 345.317L655.74 345.337Z" fill="#5E5E5E" stroke="#5E5E5E" stroke-width="0.05"/>
<path d="M620.802 317.556V304.668H623.271V317.556H620.802Z" fill="#333333"/>
<path d="M629.937 307.977C633.097 307.977 634.677 309.754 634.677 312.865C634.677 316.026 632.949 317.754 629.887 317.754C626.875 317.754 625.196 315.976 625.196 312.865C625.196 309.804 626.875 307.977 629.937 307.977ZM629.887 316.075C631.616 316.075 632.11 314.692 632.11 312.865C632.11 310.89 631.616 309.655 629.986 309.655C628.307 309.655 627.764 310.939 627.764 312.865C627.764 314.643 628.258 316.075 629.887 316.075Z" fill="#333333"/>
<path d="M644.702 314.445C644.357 316.519 642.826 317.754 640.456 317.754C637.542 317.754 636.308 315.877 636.011 312.914C635.419 307.483 643.616 306.149 644.603 311.137L642.184 311.236C642.085 310.297 641.443 309.655 640.456 309.655C638.974 309.655 638.727 311.038 638.579 312.816C638.283 316.47 641.789 317.112 642.233 314.297" fill="#333333"/>
<path d="M651.765 315.877C650.974 316.815 650.283 317.803 648.604 317.754C646.777 317.704 645.74 316.766 645.74 314.89C645.691 311.927 648.456 311.779 651.468 311.877C651.518 310.594 651.32 309.557 650.086 309.557C649.197 309.606 648.802 310.001 648.703 310.89L646.135 310.791C646.481 308.915 647.913 307.927 650.184 307.976C652.456 308.026 653.839 309.063 653.888 311.334L653.937 315.383C653.888 316.075 654.53 316.272 655.172 316.124V317.457C653.69 317.852 651.666 317.704 651.765 315.877ZM649.394 316.025C650.826 316.025 651.518 314.84 651.468 313.211C649.888 313.211 648.209 313.063 648.259 314.692C648.259 315.532 648.654 316.025 649.394 316.025Z" fill="#333333"/>
<path d="M656.307 317.556V304.668H658.776V317.556H656.307Z" fill="#333333"/>
<path d="M671.715 310.741C671.764 309.309 668.259 309.063 668.209 310.544C668.95 312.815 674.036 310.89 674.085 314.791C674.135 318.889 665.987 318.544 665.592 315.235L667.715 314.889C667.913 315.828 668.703 316.124 669.888 316.124C671.518 316.519 672.703 314.643 671.073 314.099C668.95 313.408 666.036 313.556 665.938 310.84C665.839 306.89 673.542 307.186 673.888 310.495" fill="#333333"/>
<path d="M680.259 307.976C683.419 307.976 684.999 309.754 684.999 312.865C684.999 316.025 683.271 317.753 680.209 317.753C677.197 317.753 675.518 315.976 675.518 312.865C675.518 309.803 677.197 307.976 680.259 307.976ZM680.209 316.074C681.938 316.074 682.432 314.692 682.432 312.865C682.432 310.889 681.938 309.655 680.308 309.655C678.629 309.655 678.086 310.939 678.086 312.865C678.086 314.642 678.58 316.074 680.209 316.074Z" fill="#333333"/>
<path d="M692.307 310.149C690.382 309.556 689.345 310.791 689.345 312.964V317.556H686.876L686.826 308.174H689.147C689.246 308.816 689.098 309.606 689.295 310.149C689.591 308.766 690.628 307.532 692.307 308.124V310.149Z" fill="#333333"/>
<path d="M698.234 317.408C696.456 318.099 693.938 317.753 693.938 315.334V309.803H692.753V308.174H694.086L694.827 305.952H696.357V308.174H698.135V309.803H696.357V314.692C696.308 315.828 697.147 316.223 698.234 315.926V317.408Z" fill="#333333"/>
<path d="M818 343.327H816V324.667H818V343.327ZM818 303.327H816V267.167H818V303.327Z" fill="#5E5E5E" stroke="#5E5E5E" stroke-width="0.05"/>
<path d="M816.98 266.167L818 266.137V267.197H816V266.097L816.98 266.167Z" fill="#5E5E5E"/>
<path d="M816.98 266.147L818.02 266.107V267.207H815.97V266.077L816.98 266.147ZM816.02 267.167H817.97V266.167L816.97 266.197L816.02 266.137V267.167Z" fill="#5E5E5E" stroke="#5E5E5E" stroke-width="0.05"/>
<path d="M817 358.597L812.36 344.327H821.64L817 358.597Z" fill="#5E5E5E"/>
<path d="M817 361.837L811 343.337H823L817 361.837ZM813.74 345.337L817 355.357L820.26 345.317L813.74 345.337Z" fill="#5E5E5E" stroke="#5E5E5E" stroke-width="0.05"/>
<path d="M778.802 317.556V304.668H781.271V317.556H778.802Z" fill="#333333"/>
<path d="M787.937 307.977C791.097 307.977 792.677 309.754 792.677 312.865C792.677 316.026 790.949 317.754 787.887 317.754C784.875 317.754 783.196 315.976 783.196 312.865C783.196 309.804 784.875 307.977 787.937 307.977ZM787.887 316.075C789.616 316.075 790.11 314.692 790.11 312.865C790.11 310.89 789.616 309.655 787.986 309.655C786.307 309.655 785.764 310.939 785.764 312.865C785.764 314.643 786.258 316.075 787.887 316.075Z" fill="#333333"/>
<path d="M802.702 314.445C802.357 316.519 800.826 317.754 798.456 317.754C795.542 317.754 794.308 315.877 794.011 312.914C793.419 307.483 801.616 306.149 802.603 311.137L800.184 311.236C800.085 310.297 799.443 309.655 798.456 309.655C796.974 309.655 796.727 311.038 796.579 312.816C796.283 316.47 799.789 317.112 800.233 314.297" fill="#333333"/>
<path d="M809.765 315.877C808.974 316.815 808.283 317.803 806.604 317.754C804.777 317.704 803.74 316.766 803.74 314.89C803.691 311.927 806.456 311.779 809.468 311.877C809.518 310.594 809.32 309.557 808.086 309.557C807.197 309.606 806.802 310.001 806.703 310.89L804.135 310.791C804.481 308.915 805.913 307.927 808.184 307.976C810.456 308.026 811.839 309.063 811.888 311.334L811.937 315.383C811.888 316.075 812.53 316.272 813.172 316.124V317.457C811.69 317.852 809.666 317.704 809.765 315.877ZM807.394 316.025C808.826 316.025 809.518 314.84 809.468 313.211C807.888 313.211 806.209 313.063 806.259 314.692C806.259 315.532 806.654 316.025 807.394 316.025Z" fill="#333333"/>
<path d="M814.307 317.556V304.668H816.776V317.556H814.307Z" fill="#333333"/>
<path d="M829.715 310.741C829.764 309.309 826.259 309.063 826.209 310.544C826.95 312.815 832.036 310.89 832.085 314.791C832.135 318.889 823.987 318.544 823.592 315.235L825.715 314.889C825.913 315.828 826.703 316.124 827.888 316.124C829.518 316.519 830.703 314.643 829.073 314.099C826.95 313.408 824.036 313.556 823.938 310.84C823.839 306.89 831.542 307.186 831.888 310.495" fill="#333333"/>
<path d="M838.259 307.976C841.419 307.976 842.999 309.754 842.999 312.865C842.999 316.025 841.271 317.753 838.209 317.753C835.197 317.753 833.518 315.976 833.518 312.865C833.518 309.803 835.197 307.976 838.259 307.976ZM838.209 316.074C839.938 316.074 840.432 314.692 840.432 312.865C840.432 310.889 839.938 309.655 838.308 309.655C836.629 309.655 836.086 310.939 836.086 312.865C836.086 314.642 836.58 316.074 838.209 316.074Z" fill="#333333"/>
<path d="M850.307 310.149C848.382 309.556 847.345 310.791 847.345 312.964V317.556H844.876L844.826 308.174H847.147C847.246 308.816 847.098 309.606 847.295 310.149C847.591 308.766 848.628 307.532 850.307 308.124V310.149Z" fill="#333333"/>
<path d="M856.234 317.408C854.456 318.099 851.938 317.753 851.938 315.334V309.803H850.753V308.174H852.086L852.827 305.952H854.357V308.174H856.135V309.803H854.357V314.692C854.308 315.828 855.147 316.223 856.234 315.926V317.408Z" fill="#333333"/>
<path d="M976 343.327H974V324.667H976V343.327ZM976 303.327H974V267.167H976V303.327Z" fill="#5E5E5E" stroke="#5E5E5E" stroke-width="0.05"/>
<path d="M974.98 266.167L976 266.137V267.197H974V266.097L974.98 266.167Z" fill="#5E5E5E"/>
<path d="M974.98 266.147L976.02 266.107V267.207H973.97V266.077L974.98 266.147ZM974.02 267.167H975.97V266.167L974.97 266.197L974.02 266.137V267.167Z" fill="#5E5E5E" stroke="#5E5E5E" stroke-width="0.05"/>
<path d="M975 358.597L970.36 344.327H979.64L975 358.597Z" fill="#5E5E5E"/>
<path d="M975 361.837L969 343.337H981L975 361.837ZM971.74 345.337L975 355.357L978.26 345.317L971.74 345.337Z" fill="#5E5E5E" stroke="#5E5E5E" stroke-width="0.05"/>
<path d="M936.802 317.556V304.668H939.271V317.556H936.802Z" fill="#333333"/>
<path d="M945.937 307.977C949.097 307.977 950.677 309.754 950.677 312.865C950.677 316.026 948.949 317.754 945.887 317.754C942.875 317.754 941.196 315.976 941.196 312.865C941.196 309.804 942.875 307.977 945.937 307.977ZM945.887 316.075C947.616 316.075 948.109 314.692 948.109 312.865C948.109 310.89 947.616 309.655 945.986 309.655C944.307 309.655 943.764 310.939 943.764 312.865C943.764 314.643 944.258 316.075 945.887 316.075Z" fill="#333333"/>
<path d="M960.702 314.445C960.357 316.519 958.826 317.754 956.456 317.754C953.542 317.754 952.308 315.877 952.011 312.914C951.419 307.483 959.616 306.149 960.603 311.137L958.184 311.236C958.085 310.297 957.443 309.655 956.456 309.655C954.974 309.655 954.727 311.038 954.579 312.816C954.283 316.47 957.789 317.112 958.233 314.297" fill="#333333"/>
<path d="M967.765 315.877C966.974 316.815 966.283 317.803 964.604 317.754C962.777 317.704 961.74 316.766 961.74 314.89C961.691 311.927 964.456 311.779 967.468 311.877C967.518 310.594 967.32 309.557 966.086 309.557C965.197 309.606 964.802 310.001 964.703 310.89L962.135 310.791C962.481 308.915 963.913 307.927 966.184 307.976C968.456 308.026 969.838 309.063 969.888 311.334L969.937 315.383C969.888 316.075 970.53 316.272 971.172 316.124V317.457C969.69 317.852 967.666 317.704 967.765 315.877ZM965.394 316.025C966.826 316.025 967.518 314.84 967.468 313.211C965.888 313.211 964.209 313.063 964.259 314.692C964.259 315.532 964.654 316.025 965.394 316.025Z" fill="#333333"/>
<path d="M972.307 317.556V304.668H974.776V317.556H972.307Z" fill="#333333"/>
<path d="M987.715 310.741C987.765 309.309 984.259 309.063 984.209 310.544C984.95 312.815 990.036 310.89 990.085 314.791C990.135 318.889 981.987 318.544 981.592 315.235L983.715 314.889C983.913 315.828 984.703 316.124 985.888 316.124C987.518 316.519 988.703 314.643 987.073 314.099C984.95 313.408 982.036 313.556 981.938 310.84C981.839 306.89 989.542 307.186 989.888 310.495" fill="#333333"/>
<path d="M996.259 307.976C999.419 307.976 1001 309.754 1001 312.865C1001 316.025 999.271 317.753 996.21 317.753C993.197 317.753 991.518 315.976 991.518 312.865C991.518 309.803 993.197 307.976 996.259 307.976ZM996.21 316.074C997.938 316.074 998.432 314.692 998.432 312.865C998.432 310.889 997.938 309.655 996.308 309.655C994.629 309.655 994.086 310.939 994.086 312.865C994.086 314.642 994.58 316.074 996.21 316.074Z" fill="#333333"/>
<path d="M1008.31 310.149C1006.38 309.556 1005.34 310.791 1005.34 312.964V317.556H1002.88L1002.83 308.174H1005.15C1005.25 308.816 1005.1 309.606 1005.3 310.149C1005.59 308.766 1006.63 307.532 1008.31 308.124V310.149Z" fill="#333333"/>
<path d="M1014.23 317.408C1012.46 318.099 1009.94 317.753 1009.94 315.334V309.803H1008.75V308.174H1010.09L1010.83 305.952H1012.36V308.174H1014.13V309.803H1012.36V314.692C1012.31 315.828 1013.15 316.223 1014.23 315.926V317.408Z" fill="#333333"/>
<path d="M1134 343.327H1132V324.667H1134V343.327ZM1134 303.327H1132V267.167H1134V303.327Z" fill="#5E5E5E" stroke="#5E5E5E" stroke-width="0.05"/>
<path d="M1132.98 266.167L1134 266.137V267.197H1132V266.097L1132.98 266.167Z" fill="#5E5E5E"/>
<path d="M1132.98 266.147L1134.02 266.107V267.207H1131.97V266.077L1132.98 266.147ZM1132.02 267.167H1133.97V266.167L1132.97 266.197L1132.02 266.137V267.167Z" fill="#5E5E5E" stroke="#5E5E5E" stroke-width="0.05"/>
<path d="M1133 358.597L1128.36 344.327H1137.64L1133 358.597Z" fill="#5E5E5E"/>
<path d="M1133 361.837L1127 343.337H1139L1133 361.837ZM1129.74 345.337L1133 355.357L1136.26 345.317L1129.74 345.337Z" fill="#5E5E5E" stroke="#5E5E5E" stroke-width="0.05"/>
<path d="M1094.8 317.556V304.668H1097.27V317.556H1094.8Z" fill="#333333"/>
<path d="M1103.94 307.977C1107.1 307.977 1108.68 309.754 1108.68 312.865C1108.68 316.026 1106.95 317.754 1103.89 317.754C1100.88 317.754 1099.2 315.976 1099.2 312.865C1099.2 309.804 1100.88 307.977 1103.94 307.977ZM1103.89 316.075C1105.62 316.075 1106.11 314.692 1106.11 312.865C1106.11 310.89 1105.62 309.655 1103.99 309.655C1102.31 309.655 1101.76 310.939 1101.76 312.865C1101.76 314.643 1102.26 316.075 1103.89 316.075Z" fill="#333333"/>
<path d="M1118.7 314.445C1118.36 316.519 1116.83 317.754 1114.46 317.754C1111.54 317.754 1110.31 315.877 1110.01 312.914C1109.42 307.483 1117.62 306.149 1118.6 311.137L1116.18 311.236C1116.09 310.297 1115.44 309.655 1114.46 309.655C1112.97 309.655 1112.73 311.038 1112.58 312.816C1112.28 316.47 1115.79 317.112 1116.23 314.297" fill="#333333"/>
<path d="M1125.76 315.877C1124.97 316.815 1124.28 317.803 1122.6 317.754C1120.78 317.704 1119.74 316.766 1119.74 314.89C1119.69 311.927 1122.46 311.779 1125.47 311.877C1125.52 310.594 1125.32 309.557 1124.09 309.557C1123.2 309.606 1122.8 310.001 1122.7 310.89L1120.14 310.791C1120.48 308.915 1121.91 307.927 1124.18 307.976C1126.46 308.026 1127.84 309.063 1127.89 311.334L1127.94 315.383C1127.89 316.075 1128.53 316.272 1129.17 316.124V317.457C1127.69 317.852 1125.67 317.704 1125.76 315.877ZM1123.39 316.025C1124.83 316.025 1125.52 314.84 1125.47 313.211C1123.89 313.211 1122.21 313.063 1122.26 314.692C1122.26 315.532 1122.65 316.025 1123.39 316.025Z" fill="#333333"/>
<path d="M1130.31 317.556V304.668H1132.78V317.556H1130.31Z" fill="#333333"/>
<path d="M1145.72 310.741C1145.76 309.309 1142.26 309.063 1142.21 310.544C1142.95 312.815 1148.04 310.89 1148.09 314.791C1148.13 318.889 1139.99 318.544 1139.59 315.235L1141.72 314.889C1141.91 315.828 1142.7 316.124 1143.89 316.124C1145.52 316.519 1146.7 314.643 1145.07 314.099C1142.95 313.408 1140.04 313.556 1139.94 310.84C1139.84 306.89 1147.54 307.186 1147.89 310.495" fill="#333333"/>
<path d="M1154.26 307.976C1157.42 307.976 1159 309.754 1159 312.865C1159 316.025 1157.27 317.753 1154.21 317.753C1151.2 317.753 1149.52 315.976 1149.52 312.865C1149.52 309.803 1151.2 307.976 1154.26 307.976ZM1154.21 316.074C1155.94 316.074 1156.43 314.692 1156.43 312.865C1156.43 310.889 1155.94 309.655 1154.31 309.655C1152.63 309.655 1152.09 310.939 1152.09 312.865C1152.09 314.642 1152.58 316.074 1154.21 316.074Z" fill="#333333"/>
<path d="M1166.31 310.149C1164.38 309.556 1163.34 310.791 1163.34 312.964V317.556H1160.88L1160.83 308.174H1163.15C1163.25 308.816 1163.1 309.606 1163.3 310.149C1163.59 308.766 1164.63 307.532 1166.31 308.124V310.149Z" fill="#333333"/>
<path d="M1172.23 317.408C1170.46 318.099 1167.94 317.753 1167.94 315.334V309.803H1166.75V308.174H1168.09L1168.83 305.952H1170.36V308.174H1172.13V309.803H1170.36V314.692C1170.31 315.828 1171.15 316.223 1172.23 315.926V317.408Z" fill="#333333"/>
<path d="M1292 343.327H1290V324.667H1292V343.327ZM1292 303.327H1290V267.167H1292V303.327Z" fill="#5E5E5E" stroke="#5E5E5E" stroke-width="0.05"/>
<path d="M1290.98 266.167L1292 266.137V267.197H1290V266.097L1290.98 266.167Z" fill="#5E5E5E"/>
<path d="M1290.98 266.147L1292.02 266.107V267.207H1289.97V266.077L1290.98 266.147ZM1290.02 267.167H1291.97V266.167L1290.97 266.197L1290.02 266.137V267.167Z" fill="#5E5E5E" stroke="#5E5E5E" stroke-width="0.05"/>
<path d="M1291 358.597L1286.36 344.327H1295.64L1291 358.597Z" fill="#5E5E5E"/>
<path d="M1291 361.837L1285 343.337H1297L1291 361.837ZM1287.74 345.337L1291 355.357L1294.26 345.317L1287.74 345.337Z" fill="#5E5E5E" stroke="#5E5E5E" stroke-width="0.05"/>
<path d="M1252.8 317.556V304.668H1255.27V317.556H1252.8Z" fill="#333333"/>
<path d="M1261.94 307.977C1265.1 307.977 1266.68 309.754 1266.68 312.865C1266.68 316.026 1264.95 317.754 1261.89 317.754C1258.88 317.754 1257.2 315.976 1257.2 312.865C1257.2 309.804 1258.88 307.977 1261.94 307.977ZM1261.89 316.075C1263.62 316.075 1264.11 314.692 1264.11 312.865C1264.11 310.89 1263.62 309.655 1261.99 309.655C1260.31 309.655 1259.76 310.939 1259.76 312.865C1259.76 314.643 1260.26 316.075 1261.89 316.075Z" fill="#333333"/>
<path d="M1276.7 314.445C1276.36 316.519 1274.83 317.754 1272.46 317.754C1269.54 317.754 1268.31 315.877 1268.01 312.914C1267.42 307.483 1275.62 306.149 1276.6 311.137L1274.18 311.236C1274.09 310.297 1273.44 309.655 1272.46 309.655C1270.97 309.655 1270.73 311.038 1270.58 312.816C1270.28 316.47 1273.79 317.112 1274.23 314.297" fill="#333333"/>
<path d="M1283.76 315.877C1282.97 316.815 1282.28 317.803 1280.6 317.754C1278.78 317.704 1277.74 316.766 1277.74 314.89C1277.69 311.927 1280.46 311.779 1283.47 311.877C1283.52 310.594 1283.32 309.557 1282.09 309.557C1281.2 309.606 1280.8 310.001 1280.7 310.89L1278.14 310.791C1278.48 308.915 1279.91 307.927 1282.18 307.976C1284.46 308.026 1285.84 309.063 1285.89 311.334L1285.94 315.383C1285.89 316.075 1286.53 316.272 1287.17 316.124V317.457C1285.69 317.852 1283.67 317.704 1283.76 315.877ZM1281.39 316.025C1282.83 316.025 1283.52 314.84 1283.47 313.211C1281.89 313.211 1280.21 313.063 1280.26 314.692C1280.26 315.532 1280.65 316.025 1281.39 316.025Z" fill="#333333"/>
<path d="M1288.31 317.556V304.668H1290.78V317.556H1288.31Z" fill="#333333"/>
<path d="M1303.72 310.741C1303.76 309.309 1300.26 309.063 1300.21 310.544C1300.95 312.815 1306.04 310.89 1306.09 314.791C1306.13 318.889 1297.99 318.544 1297.59 315.235L1299.72 314.889C1299.91 315.828 1300.7 316.124 1301.89 316.124C1303.52 316.519 1304.7 314.643 1303.07 314.099C1300.95 313.408 1298.04 313.556 1297.94 310.84C1297.84 306.89 1305.54 307.186 1305.89 310.495" fill="#333333"/>
<path d="M1312.26 307.976C1315.42 307.976 1317 309.754 1317 312.865C1317 316.025 1315.27 317.753 1312.21 317.753C1309.2 317.753 1307.52 315.976 1307.52 312.865C1307.52 309.803 1309.2 307.976 1312.26 307.976ZM1312.21 316.074C1313.94 316.074 1314.43 314.692 1314.43 312.865C1314.43 310.889 1313.94 309.655 1312.31 309.655C1310.63 309.655 1310.09 310.939 1310.09 312.865C1310.09 314.642 1310.58 316.074 1312.21 316.074Z" fill="#333333"/>
<path d="M1324.31 310.149C1322.38 309.556 1321.34 310.791 1321.34 312.964V317.556H1318.88L1318.83 308.174H1321.15C1321.25 308.816 1321.1 309.606 1321.3 310.149C1321.59 308.766 1322.63 307.532 1324.31 308.124V310.149Z" fill="#333333"/>
<path d="M1330.23 317.408C1328.46 318.099 1325.94 317.753 1325.94 315.334V309.803H1324.75V308.174H1326.09L1326.83 305.952H1328.36V308.174H1330.13V309.803H1328.36V314.692C1328.31 315.828 1329.15 316.223 1330.23 315.926V317.408Z" fill="#333333"/>
<path d="M233 1027.34C250.67 1027.34 265 1045.24 265 1067.34C265 1089.44 250.67 1107.34 233 1107.34H137C119.33 1107.34 105 1089.44 105 1067.34C105 1045.24 119.33 1027.34 137 1027.34H233Z" fill="white" stroke="#5E5E5E" stroke-width="3"/>
<path d="M139.647 1061.03C139.042 1059.3 137.507 1058.24 135.161 1058.22C131.519 1058.2 129.773 1060.65 129.746 1064.29C129.72 1068 131.492 1070.54 135.195 1070.57C137.85 1070.59 139.033 1069.11 140.033 1067.39L141.694 1068.27C140.566 1070.61 138.516 1072.32 135.059 1072.3C130.121 1072.26 127.859 1069.16 127.648 1064.28C127.324 1057.86 133.827 1054.88 139.24 1057.51C140.409 1058.07 141.142 1059.13 141.627 1060.37" fill="#333333"/>
<path d="M143.951 1071.99V1055.88H145.926V1071.99H143.951Z" fill="#333333"/>
<path d="M153.518 1060.01C157.345 1059.95 158.765 1062.3 158.765 1066.12C158.827 1070.01 157.098 1072.23 153.456 1072.23C149.814 1072.23 148.333 1069.83 148.271 1066.12C148.271 1062.05 149.999 1060.01 153.518 1060.01ZM153.456 1070.75C156.172 1070.81 156.728 1068.84 156.728 1066.12C156.728 1063.47 156.234 1061.49 153.58 1061.49C150.925 1061.49 150.308 1063.47 150.308 1066.12C150.308 1068.78 150.925 1070.69 153.456 1070.75Z" fill="#333333"/>
<path d="M168.025 1063.16C167.839 1061.06 162.716 1060.81 162.654 1063.16C163.58 1066.43 169.753 1063.9 170 1068.72C170.247 1073.53 160.74 1073.28 160.308 1069.21L162.037 1068.9C162.284 1071.12 168.025 1071.68 168.086 1068.9C167.469 1065.44 161.111 1067.97 160.802 1063.34C160.555 1059.83 165.864 1059.46 168.333 1060.75C169.074 1061.18 169.63 1061.92 169.815 1062.91" fill="#333333"/>
<path d="M176.975 1060.01C180.864 1060.01 182.284 1062.6 182.16 1066.55H173.827C173.827 1069.02 174.691 1070.69 177.098 1070.75C178.703 1070.81 179.753 1070.01 180.123 1068.96L181.852 1069.46C181.173 1071.18 179.568 1072.23 177.098 1072.23C173.518 1072.23 171.666 1069.95 171.728 1066.06C171.79 1062.3 173.333 1060.01 176.975 1060.01ZM180.185 1065.01C180.555 1061.31 175.493 1060.26 174.197 1063.28C174.012 1063.72 173.827 1064.33 173.827 1065.01H180.185Z" fill="#333333"/>
<path d="M191.482 1063.16C191.296 1061.06 186.173 1060.81 186.111 1063.16C187.037 1066.43 193.21 1063.9 193.457 1068.72C193.704 1073.53 184.197 1073.28 183.765 1069.21L185.494 1068.9C185.741 1071.12 191.482 1071.68 191.543 1068.9C190.926 1065.44 184.568 1067.97 184.259 1063.34C184.012 1059.83 189.321 1059.46 191.79 1060.75C192.531 1061.18 193.087 1061.92 193.272 1062.91" fill="#333333"/>
<path d="M197.901 1069.09C197.778 1070.57 199.012 1070.88 200.247 1070.44V1071.93C198.21 1072.54 195.926 1072.23 195.926 1069.52V1061.68H194.568V1060.26H196.049L196.605 1057.6H197.901V1060.26H200.062V1061.68H197.901V1069.09Z" fill="#333333"/>
<path d="M213.789 1060.06C217.184 1060.15 218.092 1062.62 218.066 1066.14C218.041 1069.66 217.035 1072.19 213.701 1072.29C211.787 1072.27 210.682 1071.46 210.012 1070.16L210.027 1076.64L208.052 1076.63L208.108 1060.27L210.022 1060.28L210.132 1062.14C210.759 1060.84 211.875 1060.05 213.789 1060.06ZM213.218 1070.8C215.687 1070.82 216.011 1068.72 216.029 1066.19C216.047 1063.66 215.691 1061.68 213.284 1061.6C210.692 1061.58 210.122 1063.56 210.102 1066.27C210.083 1068.93 210.687 1070.78 213.218 1070.8Z" fill="#333333"/>
<path d="M227.654 1069.76C226.728 1071.06 225.74 1072.3 223.456 1072.23C221.234 1072.17 219.876 1070.94 219.876 1068.72C219.814 1064.76 223.765 1064.83 227.592 1064.83C227.777 1062.67 227.037 1061.49 225.061 1061.49C223.58 1061.55 222.53 1061.92 222.469 1063.41L220.431 1063.22C220.74 1060.94 222.469 1060.01 225.123 1060.01C227.901 1060.01 229.568 1061.25 229.568 1063.96V1069.02C229.506 1070.26 230 1071 231.296 1070.69V1071.93C229.382 1072.48 227.53 1071.8 227.654 1069.76ZM221.913 1068.72C221.913 1069.95 222.654 1070.75 223.888 1070.75C226.419 1070.57 227.777 1068.96 227.592 1066.18C224.938 1066.31 221.913 1065.88 221.913 1068.72Z" fill="#333333"/>
<path d="M232.776 1057.73V1055.88H234.752V1057.73H232.776ZM232.776 1071.99V1060.26H234.752V1071.99H232.776Z" fill="#333333"/>
<path d="M243.209 1061.93C238.394 1060.94 239.938 1067.54 239.691 1071.99H237.715L237.654 1060.26H239.505C239.567 1061 239.444 1062.05 239.629 1062.67C239.999 1061 241.049 1059.64 243.209 1060.13V1061.93Z" fill="#333333"/>
</svg>
