<svg xmlns="http://www.w3.org/2000/svg" xmlns:xlink="http://www.w3.org/1999/xlink" xmlns:lucid="lucid" width="1466" height="1145.33"><g transform="translate(-16.19947506565478 -29.33333333333337)" lucid:page-tab-id="0_0"><path d="M356.2 450.67c0 22.1-17.9 40-40 40s-40-17.9-40-40 17.9-40 40-40 40 17.9 40 40z" stroke="#5e5e5e" stroke-width="3" fill="#fff"/><use xlink:href="#a" transform="matrix(1,0,0,1,281.1994750656549,415.6666666667054) translate(28.82716049382716 39.65277777777778)"/><path d="M514.2 450.67c0 22.1-17.9 40-40 40s-40-17.9-40-40 17.9-40 40-40 40 17.9 40 40z" stroke="#5e5e5e" stroke-width="3" fill="#fff"/><use xlink:href="#b" transform="matrix(1,0,0,1,439.1994750656162,415.6666666667054) translate(28.82716049382716 39.65277777777778)"/><path d="M672.2 450.67c0 22.1-17.9 40-40 40s-40-17.9-40-40 17.9-40 40-40 40 17.9 40 40z" stroke="#5e5e5e" stroke-width="3" fill="#fff"/><use xlink:href="#c" transform="matrix(1,0,0,1,597.1994750655772,415.6666666667054) translate(28.82716049382716 39.65277777777778)"/><path d="M830.2 450.67c0 22.1-17.9 40-40 40s-40-17.9-40-40 17.9-40 40-40 40 17.9 40 40z" stroke="#5e5e5e" stroke-width="3" fill="#fff"/><use xlink:href="#d" transform="matrix(1,0,0,1,755.1994750655383,415.6666666667054) translate(28.82716049382716 39.65277777777778)"/><path d="M988.2 450.67c0 22.1-17.9 40-40 40s-40-17.9-40-40 17.9-40 40-40 40 17.9 40 40z" stroke="#5e5e5e" stroke-width="3" fill="#fff"/><use xlink:href="#e" transform="matrix(1,0,0,1,913.1994750654994,415.6666666667054) translate(28.82716049382716 39.65277777777778)"/><path d="M1146.2 450.67c0 22.1-17.9 40-40 40s-40-17.9-40-40 17.9-40 40-40 40 17.9 40 40z" stroke="#5e5e5e" stroke-width="3" fill="#fff"/><use xlink:href="#f" transform="matrix(1,0,0,1,1071.1994750654605,415.6666666667054) translate(28.82716049382716 39.65277777777778)"/><path d="M1304.2 450.67c0 22.1-17.9 40-40 40s-40-17.9-40-40 17.9-40 40-40 40 17.9 40 40z" stroke="#5e5e5e" stroke-width="3" fill="#fff"/><use xlink:href="#g" transform="matrix(1,0,0,1,1229.1994750654217,415.6666666667054) translate(28.82716049382716 39.65277777777778)"/><path d="M1462.2 450.67c0 22.1-17.9 40-40 40s-40-17.9-40-40 17.9-40 40-40 40 17.9 40 40z" stroke="#5e5e5e" stroke-width="3" fill="#fff"/><use xlink:href="#h" transform="matrix(1,0,0,1,1387.1994750653828,415.6666666667054) translate(28.82716049382716 39.65277777777778)"/><path d="M475.18 493.2v.57l-.1 1.56-.17 1.52-.2 1.48-.3 1.45-.32 1.43-.4 1.4-.44 1.4-.5 1.36-.58 1.36-.64 1.35-.7 1.34-.77 1.35-.86 1.35-.94 1.34-1.03 1.35-1.12 1.35-1.22 1.37-1.35 1.38-1.5 1.4-1.6 1.4-1.8 1.4-1.98 1.44-2.17 1.44-2.4 1.45-2.64 1.46-2.93 1.44-3.22 1.43-3.56 1.4-3.92 1.38-4.3 1.3-4.7 1.2-5.07 1.08-.4.07v-2.03h.03l5-1.07 4.6-1.18 4.22-1.27 3.84-1.34 3.5-1.37 3.14-1.4 2.85-1.4 2.58-1.43 2.33-1.4 2.1-1.4 1.92-1.38 1.72-1.37 1.56-1.35 1.43-1.33 1.3-1.32 1.16-1.3 1.06-1.3.98-1.28.9-1.28.8-1.28.73-1.27.66-1.27.6-1.28.54-1.28.48-1.3.42-1.3.37-1.3.32-1.36.26-1.36.2-1.4.15-1.44.1-1.47v-.55zm-153.12 16.5l.8 1.3.9 1.26.97 1.28 1.07 1.3 1.18 1.3 1.3 1.32 1.4 1.34 1.57 1.35 1.73 1.36 1.9 1.4 2.1 1.4 2.33 1.4 2.58 1.4 2.85 1.42 3.15 1.4 3.5 1.4 3.83 1.32 4.23 1.27 4.6 1.2 5 1.06h.05v2.03l-.43-.08-5.07-1.08-4.7-1.2-4.3-1.3-3.9-1.36-3.57-1.4-3.22-1.44-2.93-1.46-2.64-1.45-2.4-1.45-2.16-1.44-1.97-1.43-1.8-1.4-1.62-1.42-1.48-1.4-1.35-1.37-1.23-1.35-1.14-1.36-1.02-1.36-.94-1.35-.85-1.35-.25-.44 1.73-1z" stroke="#5e5e5e" stroke-width=".05" fill="#5e5e5e"/><path d="M474.18 492.17l1.02-.04-.02 1.1-2-.06.02-1.06z" fill="#5e5e5e"/><path d="M474.18 492.14l1.05-.03-.03 1.14-2.05-.04.03-1.12zm-.98 1l1.95.05.03-1.04-1 .03-.95-.07z" stroke="#5e5e5e" stroke-width=".05" fill="#5e5e5e"/><path d="M325.24 507.86l-8.95 2.4.74-14.97z" fill="#5e5e5e"/><path d="M326.83 508.46l-11.6 3.14.97-19.43zm-9.47.5l6.3-1.7-5.77-8.84z" stroke="#5e5e5e" stroke-width=".05" fill="#5e5e5e"/><use xlink:href="#i" transform="matrix(1,0,0,1,369.07507129901217,528.8684832496118) translate(0 14.222222222222223)"/><path d="M791.18 493.2v.57l-.1 1.56-.17 1.52-.2 1.48-.3 1.45-.32 1.43-.4 1.4-.44 1.4-.5 1.36-.58 1.36-.64 1.35-.7 1.34-.78 1.35-.85 1.35-.94 1.34-1.03 1.35-1.12 1.35-1.22 1.37-1.35 1.38-1.5 1.4-1.62 1.4-1.77 1.4-1.98 1.44-2.17 1.44-2.4 1.45-2.64 1.46-2.93 1.44-3.22 1.43-3.56 1.4-3.92 1.38-4.3 1.3-4.7 1.2-5.07 1.08-.4.07v-2.03h.03l5-1.07 4.6-1.18 4.22-1.27 3.85-1.34 3.48-1.37 3.16-1.4 2.85-1.4 2.58-1.43 2.33-1.4 2.1-1.4 1.92-1.38 1.72-1.37 1.57-1.35 1.43-1.33 1.3-1.32 1.16-1.3 1.06-1.3.98-1.28.9-1.28.8-1.28.73-1.27.66-1.27.6-1.28.54-1.28.48-1.3.42-1.3.37-1.3.32-1.36.26-1.36.2-1.4.16-1.44.1-1.47v-.55zm-153.12 16.5l.8 1.3.9 1.26.97 1.28 1.07 1.3 1.18 1.3 1.3 1.32 1.4 1.34 1.57 1.35 1.73 1.36 1.9 1.4 2.1 1.4 2.33 1.4 2.58 1.4 2.85 1.42 3.15 1.4 3.5 1.4 3.83 1.32 4.22 1.27 4.6 1.2 5 1.06h.06v2.03l-.43-.08-5.07-1.08-4.7-1.2-4.3-1.3-3.9-1.36-3.57-1.4-3.22-1.44-2.92-1.46-2.65-1.45-2.4-1.45-2.16-1.44-1.97-1.43-1.8-1.4-1.62-1.42-1.48-1.4-1.35-1.37-1.23-1.35-1.14-1.36-1.02-1.36-.94-1.35-.85-1.35-.25-.44 1.73-1z" stroke="#5e5e5e" stroke-width=".05" fill="#5e5e5e"/><path d="M790.18 492.17l1.02-.04-.02 1.1-2-.06.02-1.06z" fill="#5e5e5e"/><path d="M790.18 492.14l1.05-.03-.03 1.14-2.05-.04.03-1.12zm-.98 1l1.95.05.02-1.04-1 .03-.94-.07z" stroke="#5e5e5e" stroke-width=".05" fill="#5e5e5e"/><path d="M641.24 507.86l-8.95 2.4.74-14.97z" fill="#5e5e5e"/><path d="M642.83 508.46l-11.6 3.14.97-19.43zm-9.47.5l6.3-1.7-5.77-8.84z" stroke="#5e5e5e" stroke-width=".05" fill="#5e5e5e"/><use xlink:href="#i" transform="matrix(1,0,0,1,685.0750712989343,528.8684832496118) translate(0 14.222222222222223)"/><path d="M1107.18 493.2v.57l-.1 1.56-.17 1.52-.2 1.48-.3 1.45-.32 1.43-.4 1.4-.44 1.4-.5 1.36-.58 1.36-.64 1.35-.7 1.34-.77 1.35-.86 1.35-.94 1.34-1.03 1.35-1.12 1.35-1.22 1.37-1.35 1.38-1.5 1.4-1.62 1.4-1.78 1.4-1.97 1.44-2.17 1.44-2.4 1.45-2.64 1.46-2.93 1.44-3.22 1.43-3.56 1.4-3.92 1.38-4.3 1.3-4.7 1.2-5.07 1.08-.4.07v-2.03h.03l5-1.07 4.6-1.18 4.22-1.27 3.85-1.34 3.48-1.37 3.16-1.4 2.85-1.4 2.58-1.43 2.33-1.4 2.1-1.4 1.92-1.38 1.72-1.37 1.56-1.35 1.43-1.33 1.3-1.32 1.16-1.3 1.07-1.3.97-1.28.9-1.28.8-1.28.73-1.27.66-1.27.6-1.28.54-1.28.48-1.3.42-1.3.37-1.3.32-1.36.26-1.36.2-1.4.15-1.44.1-1.47v-.55zm-153.12 16.5l.8 1.3.9 1.26.97 1.28 1.07 1.3 1.18 1.3 1.3 1.32 1.4 1.34 1.57 1.35 1.73 1.36 1.9 1.4 2.1 1.4 2.33 1.4 2.58 1.4 2.85 1.42 3.15 1.4 3.5 1.4 3.83 1.32 4.22 1.27 4.6 1.2 5 1.06h.06v2.03l-.43-.08-5.07-1.08-4.7-1.2-4.3-1.3-3.9-1.36-3.57-1.4-3.22-1.44-2.92-1.46-2.65-1.45-2.4-1.45-2.16-1.44-1.97-1.43-1.8-1.4-1.62-1.42-1.48-1.4-1.35-1.37-1.23-1.35-1.14-1.36-1.02-1.36-.94-1.35-.85-1.35-.25-.44 1.73-1z" stroke="#5e5e5e" stroke-width=".05" fill="#5e5e5e"/><path d="M1106.18 492.17l1.02-.04-.02 1.1-2-.06.02-1.06z" fill="#5e5e5e"/><path d="M1106.18 492.14l1.05-.03-.03 1.14-2.05-.04.03-1.12zm-.98 1l1.95.05.02-1.04-1 .03-.95-.07z" stroke="#5e5e5e" stroke-width=".05" fill="#5e5e5e"/><path d="M957.24 507.86l-8.95 2.4.74-14.97z" fill="#5e5e5e"/><path d="M958.83 508.46l-11.6 3.14.97-19.43zm-9.47.5l6.3-1.7-5.77-8.84z" stroke="#5e5e5e" stroke-width=".05" fill="#5e5e5e"/><use xlink:href="#i" transform="matrix(1,0,0,1,1001.0750712988566,528.8684832496118) translate(0 14.222222222222223)"/><path d="M1423.18 493.2v.57l-.1 1.56-.17 1.52-.2 1.48-.3 1.45-.32 1.43-.4 1.4-.44 1.4-.5 1.36-.58 1.36-.64 1.35-.7 1.34-.77 1.35-.86 1.35-.94 1.34-1.03 1.35-1.12 1.35-1.22 1.37-1.35 1.38-1.5 1.4-1.62 1.4-1.78 1.4-1.97 1.44-2.17 1.44-2.4 1.45-2.64 1.46-2.93 1.44-3.22 1.43-3.56 1.4-3.92 1.38-4.3 1.3-4.7 1.2-5.07 1.08-.4.07v-2.03h.03l5-1.07 4.6-1.18 4.22-1.27 3.85-1.34 3.48-1.37 3.16-1.4 2.85-1.4 2.58-1.43 2.33-1.4 2.1-1.4 1.92-1.38 1.72-1.37 1.56-1.35 1.43-1.33 1.3-1.32 1.16-1.3 1.07-1.3.97-1.28.9-1.28.8-1.28.73-1.27.66-1.27.6-1.28.54-1.28.48-1.3.42-1.3.37-1.3.32-1.36.26-1.36.2-1.4.15-1.44.1-1.47v-.55zm-153.12 16.5l.8 1.3.9 1.26.97 1.28 1.07 1.3 1.18 1.3 1.3 1.32 1.4 1.34 1.57 1.35 1.73 1.36 1.9 1.4 2.1 1.4 2.33 1.4 2.58 1.4 2.85 1.42 3.15 1.4 3.48 1.4 3.85 1.32 4.22 1.27 4.6 1.2 5 1.06h.06v2.03l-.43-.08-5.07-1.08-4.7-1.2-4.3-1.3-3.9-1.36-3.57-1.4-3.22-1.44-2.93-1.46-2.64-1.45-2.4-1.45-2.16-1.44-1.97-1.43-1.8-1.4-1.62-1.42-1.48-1.4-1.35-1.37-1.23-1.35-1.14-1.36-1.02-1.36-.94-1.35-.85-1.35-.25-.44 1.73-1z" stroke="#5e5e5e" stroke-width=".05" fill="#5e5e5e"/><path d="M1422.18 492.17l1.02-.04-.02 1.1-2-.06.02-1.06z" fill="#5e5e5e"/><path d="M1422.18 492.14l1.05-.03-.03 1.14-2.05-.04.03-1.12zm-.98 1l1.95.05.02-1.04-1 .03-.95-.07z" stroke="#5e5e5e" stroke-width=".05" fill="#5e5e5e"/><path d="M1273.24 507.86l-8.95 2.4.74-14.97z" fill="#5e5e5e"/><path d="M1274.83 508.46l-11.6 3.14.97-19.43zm-9.47.5l6.3-1.7-5.77-8.84z" stroke="#5e5e5e" stroke-width=".05" fill="#5e5e5e"/><use xlink:href="#i" transform="matrix(1,0,0,1,1317.0750712987788,528.8684832496117) translate(0 14.222222222222223)"/><path d="M316.2 493.17V621.5" stroke="#5e5e5e" stroke-width="2" fill="none"/><path d="M316.18 492.17l1.02-.04v1.06h-2v-1.1z" stroke="#5e5e5e" stroke-width=".05" fill="#5e5e5e"/><path d="M316.2 636.76l-4.64-14.26h9.27z" stroke="#5e5e5e" stroke-width="2" fill="#5e5e5e"/><path d="M356.2 640c0 22.1-17.9 40-40 40s-40-17.9-40-40 17.9-40 40-40 40 17.9 40 40z" stroke="#5e5e5e" stroke-width="3" fill="#fff"/><use xlink:href="#a" transform="matrix(1,0,0,1,281.19947506565507,605) translate(28.82716049382716 39.65277777777778)"/><path d="M672.2 640c0 22.1-17.9 40-40 40s-40-17.9-40-40 17.9-40 40-40 40 17.9 40 40z" stroke="#5e5e5e" stroke-width="3" fill="#fff"/><use xlink:href="#c" transform="matrix(1,0,0,1,597.1994750655772,605) translate(28.82716049382716 39.65277777777778)"/><path d="M988.2 640c0 22.1-17.9 40-40 40s-40-17.9-40-40 17.9-40 40-40 40 17.9 40 40z" stroke="#5e5e5e" stroke-width="3" fill="#fff"/><use xlink:href="#e" transform="matrix(1,0,0,1,913.1994750654994,605) translate(28.82716049382716 39.65277777777778)"/><path d="M1304.2 640c0 22.1-17.9 40-40 40s-40-17.9-40-40 17.9-40 40-40 40 17.9 40 40z" stroke="#5e5e5e" stroke-width="3" fill="#fff"/><use xlink:href="#g" transform="matrix(1,0,0,1,1229.1994750654217,605) translate(28.82716049382716 39.65277777777778)"/><path d="M632.2 493.17V580" stroke="#5e5e5e" stroke-width="2" fill="none"/><path d="M632.18 492.17l1.02-.04v1.06h-2v-1.1z" stroke="#5e5e5e" stroke-width=".05" fill="#5e5e5e"/><path d="M632.2 595.26L627.56 581h9.28z" stroke="#5e5e5e" stroke-width="2" fill="#5e5e5e"/><path d="M948.2 493.17V580" stroke="#5e5e5e" stroke-width="2" fill="none"/><path d="M948.18 492.17l1.02-.04v1.06h-2v-1.1z" stroke="#5e5e5e" stroke-width=".05" fill="#5e5e5e"/><path d="M948.2 595.26L943.56 581h9.28z" stroke="#5e5e5e" stroke-width="2" fill="#5e5e5e"/><path d="M1264.2 493.17V580" stroke="#5e5e5e" stroke-width="2" fill="none"/><path d="M1264.18 492.17l1.02-.04v1.06h-2v-1.1z" stroke="#5e5e5e" stroke-width=".05" fill="#5e5e5e"/><path d="M1264.2 595.26l-4.64-14.26h9.28z" stroke="#5e5e5e" stroke-width="2" fill="#5e5e5e"/><path d="M1265.18 682.52l-.05 2.15-.2 3.08-.3 3-.44 2.9-.55 2.87-.66 2.8-.78 2.77-.9 2.72-1 2.7-1.12 2.68-1.25 2.66-1.4 2.65-1.5 2.65-1.7 2.65-1.84 2.66-2.02 2.67-2.22 2.68-2.44 2.72-2.67 2.72-2.93 2.76-3.23 2.78-3.55 2.8-3.9 2.85-4.32 2.86-4.76 2.87-5.26 2.9-5.8 2.87-6.42 2.85-7.1 2.8-7.8 2.7-8.55 2.6-9.34 2.4-10.12 2.13-10.85 1.84-11.5 1.45-4.4.37v-2.02l4.2-.36 11.4-1.43 10.77-1.83 10.04-2.13 9.26-2.38 8.48-2.55 7.72-2.68 7-2.77 6.35-2.82 5.74-2.85 5.17-2.85 4.7-2.83 4.23-2.82 3.84-2.8 3.48-2.74 3.16-2.73 2.87-2.7 2.62-2.65 2.38-2.65 2.16-2.62 2-2.6 1.8-2.58 1.62-2.58 1.5-2.58 1.34-2.57 1.2-2.6 1.1-2.6.98-2.6.86-2.66.75-2.67.64-2.73.52-2.77.42-2.84.3-2.92.2-3 .04-2.1zm-313.1 19l.87 2.63.98 2.63 1.1 2.6 1.2 2.58 1.36 2.58 1.47 2.57 1.64 2.6 1.8 2.58 1.98 2.6 2.17 2.62 2.38 2.64 2.6 2.67 2.88 2.7 3.17 2.73 3.48 2.76 3.84 2.78 4.23 2.8 4.7 2.85 5.17 2.85 5.74 2.84 6.34 2.82 7 2.77 7.72 2.7 8.48 2.56 9.26 2.37 10.03 2.13 10.76 1.82 11.4 1.44 4.24.36v2l-4.44-.37-11.5-1.44-10.84-1.83-10.12-2.15-9.34-2.4-8.55-2.58-7.8-2.7-7.1-2.8-6.42-2.87-5.8-2.88-5.26-2.9-4.76-2.87-4.3-2.86-3.92-2.84-3.54-2.8-3.23-2.8-2.93-2.75-2.67-2.72-2.44-2.7-2.22-2.68-2-2.67-1.86-2.65-1.68-2.65-1.53-2.65-1.38-2.65-1.26-2.66-1.13-2.7-1-2.7-.9-2.7-.56-2.04 1.94-.53z" stroke="#5e5e5e" stroke-width=".05" fill="#5e5e5e"/><path d="M1264.18 681.5l1.02-.03-.02 1.08-2-.04.02-1.06z" fill="#5e5e5e"/><path d="M1264.18 681.48l1.05-.04-.03 1.14-2.05-.05.03-1.12zm-.98 1l1.95.05.02-1.04-1 .03-.95-.06z" stroke="#5e5e5e" stroke-width=".05" fill="#5e5e5e"/><path d="M955.05 698.26l-9.2 1.2 2.77-14.75z" fill="#5e5e5e"/><path d="M956.55 699.07l-11.93 1.55 3.58-19.12zm-9.45-.8l6.46-.82-4.53-9.53z" stroke="#5e5e5e" stroke-width=".05" fill="#5e5e5e"/><use xlink:href="#i" transform="matrix(1,0,0,1,1080.074124322337,765.5693642529468) translate(0 14.222222222222223)"/><path d="M633.18 682.52l-.05 2.15-.2 3.08-.3 3-.44 2.9-.55 2.87-.66 2.8-.78 2.77-.9 2.72-1 2.7-1.12 2.68-1.25 2.66-1.4 2.65-1.5 2.65-1.7 2.65-1.84 2.66-2.02 2.67-2.22 2.68-2.44 2.72-2.67 2.72-2.93 2.76-3.23 2.78-3.55 2.8-3.9 2.85-4.32 2.86-4.76 2.87-5.26 2.9-5.8 2.87-6.42 2.85-7.1 2.8-7.8 2.7-8.55 2.6-9.34 2.4-10.12 2.13-10.85 1.84-11.5 1.45-4.4.37v-2.02l4.2-.36 11.4-1.43 10.78-1.83 10.04-2.13 9.26-2.38 8.48-2.55 7.72-2.68 7-2.77 6.35-2.82 5.74-2.85 5.17-2.85 4.7-2.83 4.23-2.82 3.84-2.8 3.48-2.74 3.16-2.73 2.87-2.7 2.62-2.65 2.38-2.65 2.16-2.62 2-2.6 1.8-2.58 1.62-2.58 1.5-2.58 1.34-2.57 1.22-2.6 1.1-2.6.96-2.6.86-2.66.75-2.67.64-2.73.52-2.77.42-2.84.3-2.92.2-3 .04-2.1zm-313.1 19l.87 2.63.98 2.63 1.1 2.6 1.2 2.58 1.35 2.58 1.5 2.57 1.63 2.6 1.8 2.58 1.98 2.6 2.17 2.62 2.38 2.64 2.6 2.67 2.88 2.7 3.17 2.73 3.48 2.76 3.84 2.78 4.23 2.8 4.7 2.85 5.17 2.85 5.73 2.84 6.35 2.82 7 2.77 7.72 2.7 8.48 2.56 9.26 2.37 10.03 2.13 10.76 1.82 11.4 1.44 4.24.36v2l-4.44-.37-11.5-1.44-10.83-1.83-10.12-2.15-9.34-2.4-8.55-2.58-7.8-2.7-7.1-2.8-6.42-2.87-5.8-2.88-5.26-2.9-4.76-2.87-4.3-2.86-3.92-2.84-3.54-2.8-3.23-2.8-2.93-2.75-2.67-2.72-2.44-2.7-2.22-2.68-2-2.67-1.86-2.65-1.68-2.65-1.53-2.65-1.38-2.65-1.26-2.66-1.13-2.7-1-2.7-.9-2.7-.56-2.04 1.94-.53z" stroke="#5e5e5e" stroke-width=".05" fill="#5e5e5e"/><path d="M632.18 681.5l1.02-.03-.02 1.08-2-.04.02-1.06z" fill="#5e5e5e"/><path d="M632.18 681.48l1.05-.04-.03 1.14-2.05-.05.03-1.12zm-.98 1l1.95.05.02-1.04-1 .03-.94-.06z" stroke="#5e5e5e" stroke-width=".05" fill="#5e5e5e"/><path d="M323.05 698.26l-9.2 1.2 2.77-14.75z" fill="#5e5e5e"/><path d="M324.55 699.07l-11.93 1.55 3.58-19.12zm-9.45-.8l6.46-.82-4.53-9.53z" stroke="#5e5e5e" stroke-width=".05" fill="#5e5e5e"/><use xlink:href="#i" transform="matrix(1,0,0,1,448.07412432249185,765.5693642529474) translate(0 14.222222222222223)"/><path d="M356.2 860c0 22.1-17.9 40-40 40s-40-17.9-40-40 17.9-40 40-40 40 17.9 40 40z" stroke="#5e5e5e" stroke-width="3" fill="#fff"/><use xlink:href="#a" transform="matrix(1,0,0,1,281.19947506565484,825.0000000000001) translate(28.82716049382716 39.65277777777778)"/><path d="M988.2 860c0 22.1-17.9 40-40 40s-40-17.9-40-40 17.9-40 40-40 40 17.9 40 40z" stroke="#5e5e5e" stroke-width="3" fill="#fff"/><use xlink:href="#e" transform="matrix(1,0,0,1,913.1994750654994,825.0000000000001) translate(28.82716049382716 39.65277777777778)"/><path d="M948.2 682.5V800" stroke="#5e5e5e" stroke-width="2" fill="none"/><path d="M948.18 681.5l1.02-.03v1.06h-2v-1.1z" stroke="#5e5e5e" stroke-width=".05" fill="#5e5e5e"/><path d="M948.2 815.26L943.56 801h9.28z" stroke="#5e5e5e" stroke-width="2" fill="#5e5e5e"/><path d="M316.2 682.5V800" stroke="#5e5e5e" stroke-width="2" fill="none"/><path d="M316.18 681.5l1.02-.03v1.06h-2v-1.1z" stroke="#5e5e5e" stroke-width=".05" fill="#5e5e5e"/><path d="M316.2 815.26L311.56 801h9.27z" stroke="#5e5e5e" stroke-width="2" fill="#5e5e5e"/><path d="M949.18 902.53l-.1 5.27-.4 6.1-.62 5.95-.86 5.8-1.08 5.68-1.3 5.58-1.54 5.5-1.76 5.4-2 5.37-2.23 5.3-2.5 5.3-2.75 5.26-3.04 5.26-3.33 5.25-3.67 5.28-4.02 5.3-4.42 5.34-4.84 5.37-5.32 5.43-5.83 5.48-6.42 5.53-7.06 5.6-7.8 5.65-8.58 5.7-9.48 5.74-10.48 5.75-11.58 5.75-12.8 5.7-14.14 5.58-15.56 5.42-17.08 5.15-18.64 4.78-20.2 4.28-21.64 3.66-22.95 2.9-23.96 2-10.88.46v-2l10.76-.45 23.88-2 22.87-2.9 21.57-3.63 20.1-4.27 18.56-4.76 17-5.13 15.5-5.4 14.04-5.55 12.73-5.66 11.5-5.7 10.4-5.73 9.42-5.7 8.5-5.64 7.73-5.62 7-5.54 6.35-5.48 5.78-5.42 5.26-5.37 4.8-5.3 4.35-5.28 4-5.25 3.6-5.2 3.3-5.2 3-5.18 2.7-5.2 2.47-5.2 2.2-5.24 1.96-5.28 1.74-5.33 1.5-5.4 1.3-5.5 1.06-5.6.85-5.72.6-5.86.4-6.02.1-5.23zm-630 22.77l1.05 5.6 1.3 5.5 1.5 5.4 1.73 5.34 1.97 5.28 2.2 5.24 2.45 5.2 2.7 5.2 3 5.18 3.3 5.2 3.62 5.2 3.98 5.24 4.36 5.27 4.8 5.3 5.24 5.38 5.77 5.42 6.36 5.48 7 5.54 7.7 5.6 8.53 5.66 9.4 5.7 10.4 5.7 11.52 5.7 12.72 5.68 14.05 5.57 15.48 5.38 17 5.13 18.55 4.76 20.1 4.27 21.57 3.65 22.86 2.9 23.88 2 10.8.45v2l-10.93-.46-23.96-2-22.94-2.9-21.65-3.67-20.2-4.28-18.62-4.8-17.08-5.14-15.56-5.42-14.13-5.6-12.8-5.68-11.6-5.75-10.46-5.75-9.48-5.73-8.6-5.7-7.77-5.65-7.07-5.6-6.4-5.54-5.85-5.48-5.3-5.42-4.86-5.38-4.4-5.33-4.04-5.3-3.66-5.28-3.34-5.26-3.04-5.26-2.75-5.27-2.5-5.28-2.23-5.32-2-5.35-1.75-5.42-1.54-5.5-1.3-5.56-1.1-5.68-.8-5.54 1.98-.3z" stroke="#5e5e5e" stroke-width=".05" fill="#5e5e5e"/><path d="M948.18 901.5l1.02-.03-.02 1.08-2-.04.02-1.06z" fill="#5e5e5e"/><path d="M948.18 901.48l1.05-.04-.03 1.14-2.05-.04.03-1.13zm-.98 1l1.95.05.02-1.04-1 .03-.94-.06z" stroke="#5e5e5e" stroke-width=".05" fill="#5e5e5e"/><path d="M321.93 918.68l-9.25.58 3.72-14.53z" fill="#5e5e5e"/><path d="M323.37 919.6l-12 .75 4.83-18.85zm-9.38-1.42l6.5-.42-3.9-9.8z" stroke="#5e5e5e" stroke-width=".05" fill="#5e5e5e"/><use xlink:href="#i" transform="matrix(1,0,0,1,606.0722303694537,1080.304459593028) translate(0 14.222222222222223)"/><path d="M316.2 902.5v152.16" stroke="#5e5e5e" stroke-width="2" fill="none"/><path d="M316.18 901.5l1.02-.03v1.06h-2v-1.1z" stroke="#5e5e5e" stroke-width=".05" fill="#5e5e5e"/><path d="M316.2 1069.93l-4.64-14.27h9.27z" stroke="#5e5e5e" stroke-width="2" fill="#5e5e5e"/><path d="M36.2 426.67a6 6 0 0 1 6-6h228a6 6 0 0 1 6 6v48a6 6 0 0 1-6 6h-228a6 6 0 0 1-6-6z" stroke="#000" stroke-opacity="0" stroke-width="3" fill="#fff" fill-opacity="0"/><use xlink:href="#a" transform="matrix(1,0,0,1,41.19947506565478,425.6666666667054) translate(108.82716049382717 30.27777777777778)"/><path d="M36.2 616a6 6 0 0 1 6-6h228a6 6 0 0 1 6 6v48a6 6 0 0 1-6 6h-228a6 6 0 0 1-6-6z" stroke="#000" stroke-opacity="0" stroke-width="3" fill="#fff" fill-opacity="0"/><use xlink:href="#b" transform="matrix(1,0,0,1,41.19947506565478,615) translate(108.82716049382717 30.27777777777778)"/><path d="M36.2 836a6 6 0 0 1 6-6h228a6 6 0 0 1 6 6v48a6 6 0 0 1-6 6h-228a6 6 0 0 1-6-6z" stroke="#000" stroke-opacity="0" stroke-width="3" fill="#fff" fill-opacity="0"/><use xlink:href="#c" transform="matrix(1,0,0,1,41.199475065655065,835.0000000000001) translate(108.82716049382717 30.27777777777778)"/><path d="M36.2 1090.67a6 6 0 0 1 6-6h228a6 6 0 0 1 6 6v48a6 6 0 0 1-6 6h-228a6 6 0 0 1-6-6z" stroke="#000" stroke-opacity="0" stroke-width="3" fill="#fff" fill-opacity="0"/><use xlink:href="#b" transform="matrix(1,0,0,1,41.19947506565478,1089.666666666667) translate(108.82716049382717 30.27777777777778)"/><path d="M36.2 372a6 6 0 0 1 6-6h228a6 6 0 0 1 6 6v48a6 6 0 0 1-6 6h-228a6 6 0 0 1-6-6z" stroke="#000" stroke-opacity="0" stroke-width="3" fill="#fff" fill-opacity="0"/><use xlink:href="#j" transform="matrix(1,0,0,1,41.19947506565478,370.99999999999994) translate(88.48765432098766 30.27777777777778)"/><path d="M927.6 49.33c21.5 0 38.93 17.9 38.93 40s-17.43 40-38.93 40H810.8c-21.5 0-38.93-17.9-38.93-40s17.43-40 38.93-40z" stroke="#5e5e5e" stroke-width="3" fill="#fff"/><use xlink:href="#k" transform="matrix(1,0,0,1,776.8661417321853,54.33333333333337) translate(30.80246913580247 39.65277777777778)"/><use xlink:href="#l" transform="matrix(1,0,0,1,776.8661417321853,54.33333333333337) translate(70.30864197530865 39.65277777777778)"/><use xlink:href="#m" transform="matrix(1,0,0,1,776.8661417321853,54.33333333333337) translate(95 39.65277777777778)"/><path d="M356.2 272c0 22.1-17.9 40-40 40s-40-17.9-40-40 17.9-40 40-40 40 17.9 40 40z" stroke="#5e5e5e" stroke-width="3" fill="#fff"/><use xlink:href="#a" transform="matrix(1,0,0,1,281.1994750656548,237) translate(28.82716049382716 39.65277777777778)"/><path d="M514.2 272c0 22.1-17.9 40-40 40s-40-17.9-40-40 17.9-40 40-40 40 17.9 40 40z" stroke="#5e5e5e" stroke-width="3" fill="#fff"/><use xlink:href="#b" transform="matrix(1,0,0,1,439.19947506561607,237) translate(28.82716049382716 39.65277777777778)"/><path d="M672.2 272c0 22.1-17.9 40-40 40s-40-17.9-40-40 17.9-40 40-40 40 17.9 40 40z" stroke="#5e5e5e" stroke-width="3" fill="#fff"/><use xlink:href="#c" transform="matrix(1,0,0,1,597.199475065577,237) translate(28.82716049382716 39.65277777777778)"/><path d="M830.2 272c0 22.1-17.9 40-40 40s-40-17.9-40-40 17.9-40 40-40 40 17.9 40 40z" stroke="#5e5e5e" stroke-width="3" fill="#fff"/><use xlink:href="#d" transform="matrix(1,0,0,1,755.1994750655381,237) translate(28.82716049382716 39.65277777777778)"/><path d="M988.2 272c0 22.1-17.9 40-40 40s-40-17.9-40-40 17.9-40 40-40 40 17.9 40 40z" stroke="#5e5e5e" stroke-width="3" fill="#fff"/><use xlink:href="#e" transform="matrix(1,0,0,1,913.1994750654994,237) translate(28.82716049382716 39.65277777777778)"/><path d="M1146.2 272c0 22.1-17.9 40-40 40s-40-17.9-40-40 17.9-40 40-40 40 17.9 40 40z" stroke="#5e5e5e" stroke-width="3" fill="#fff"/><use xlink:href="#f" transform="matrix(1,0,0,1,1071.1994750654603,237) translate(28.82716049382716 39.65277777777778)"/><path d="M1304.2 272c0 22.1-17.9 40-40 40s-40-17.9-40-40 17.9-40 40-40 40 17.9 40 40z" stroke="#5e5e5e" stroke-width="3" fill="#fff"/><use xlink:href="#g" transform="matrix(1,0,0,1,1229.199475065422,237) translate(28.82716049382716 39.65277777777778)"/><path d="M1462.2 272c0 22.1-17.9 40-40 40s-40-17.9-40-40 17.9-40 40-40 40 17.9 40 40z" stroke="#5e5e5e" stroke-width="3" fill="#fff"/><use xlink:href="#h" transform="matrix(1,0,0,1,1387.1994750653826,237) translate(28.82716049382716 39.65277777777778)"/><path d="M868.2 131l-533.8 96.22" stroke="#5e5e5e" stroke-width="2" fill="none"/><path d="M872.33 131.28l-3.96.72-.2-1.17h4.08z" stroke="#5e5e5e" stroke-width=".05" fill="#5e5e5e"/><path d="M319.38 229.93l13.22-7.1 1.65 9.13z" stroke="#5e5e5e" stroke-width="2" fill="#5e5e5e"/><path d="M868.23 131.08l-376.1 94.9" stroke="#5e5e5e" stroke-width="2" fill="none"/><path d="M872.35 131.07l-3.9.98-.3-1.22h4.14z" stroke="#5e5e5e" stroke-width=".05" fill="#5e5e5e"/><path d="M477.34 229.7l12.7-7.98 2.26 9z" stroke="#5e5e5e" stroke-width="2" fill="#5e5e5e"/><path d="M868.28 131.22l-219.02 92.1" stroke="#5e5e5e" stroke-width="2" fill="none"/><path d="M868.64 132.15l-.55-1.32h3.68z" stroke="#5e5e5e" stroke-width=".05" fill="#5e5e5e"/><path d="M635.18 229.25l11.36-9.8 3.6 8.54z" stroke="#5e5e5e" stroke-width="2" fill="#5e5e5e"/><path d="M868.58 131.62L801.68 216" stroke="#5e5e5e" stroke-width="2" fill="none"/><path d="M869.35 132.26l-1.57-1.24.14-.2h2.56z" stroke="#5e5e5e" stroke-width=".05" fill="#5e5e5e"/><path d="M792.2 227.96l5.24-14.06 7.26 5.76z" stroke="#5e5e5e" stroke-width="2" fill="#5e5e5e"/><path d="M869.82 131.62l66.9 84.38" stroke="#5e5e5e" stroke-width="2" fill="none"/><path d="M870.62 131.02l-1.57 1.24-1.13-1.43h2.56z" stroke="#5e5e5e" stroke-width=".05" fill="#5e5e5e"/><path d="M946.2 227.96l-12.5-8.3 7.26-5.76z" stroke="#5e5e5e" stroke-width="2" fill="#5e5e5e"/><path d="M870.12 131.22l219.02 92.1" stroke="#5e5e5e" stroke-width="2" fill="none"/><path d="M869.76 132.15l-3.14-1.32h3.7z" stroke="#5e5e5e" stroke-width=".05" fill="#5e5e5e"/><path d="M1103.22 229.25l-14.95-1.26 3.6-8.56z" stroke="#5e5e5e" stroke-width="2" fill="#5e5e5e"/><path d="M870.17 131.08l376.1 94.9" stroke="#5e5e5e" stroke-width="2" fill="none"/><path d="M869.95 132.05l-3.9-.98.06-.24h4.16z" stroke="#5e5e5e" stroke-width=".05" fill="#5e5e5e"/><path d="M1261.06 229.7l-14.96 1 2.26-8.98z" stroke="#5e5e5e" stroke-width="2" fill="#5e5e5e"/><path d="M870.18 131l533.8 96.22" stroke="#5e5e5e" stroke-width="2" fill="none"/><path d="M870.03 132l-3.96-.72.08-.45h4.1z" stroke="#5e5e5e" stroke-width=".05" fill="#5e5e5e"/><path d="M1419.02 229.93l-14.87 2.03 1.65-9.13z" stroke="#5e5e5e" stroke-width="2" fill="#5e5e5e"/><path d="M317.2 390.66h-2V372h2zm0-40h-2V314.5h2z" stroke="#5e5e5e" stroke-width=".05" fill="#5e5e5e"/><path d="M316.18 313.5l1.02-.03v1.06h-2v-1.1z" fill="#5e5e5e"/><path d="M316.18 313.48l1.04-.04v1.1h-2.05v-1.13zm-.96 1.02h1.95v-1l-1 .03-.95-.06z" stroke="#5e5e5e" stroke-width=".05" fill="#5e5e5e"/><path d="M316.2 405.93l-4.64-14.27h9.27z" fill="#5e5e5e"/><path d="M316.2 409.17l-6-18.5h12zm-3.26-16.5l3.26 10.02 3.26-10.04z" stroke="#5e5e5e" stroke-width=".05" fill="#5e5e5e"/><use xlink:href="#n" transform="matrix(1,0,0,1,276.7673763002227,350.666666666686) translate(0 14.222222222222223)"/><use xlink:href="#o" transform="matrix(1,0,0,1,276.7673763002227,350.666666666686) translate(45.38271604938272 14.222222222222223)"/><path d="M475.2 390.66h-2V372h2zm0-40h-2V314.5h2z" stroke="#5e5e5e" stroke-width=".05" fill="#5e5e5e"/><path d="M474.18 313.5l1.02-.03v1.06h-2v-1.1z" fill="#5e5e5e"/><path d="M474.18 313.48l1.04-.04v1.1h-2.05v-1.13zm-.96 1.02h1.95v-1l-1 .03-.95-.06z" stroke="#5e5e5e" stroke-width=".05" fill="#5e5e5e"/><path d="M474.2 405.93l-4.64-14.27h9.27z" fill="#5e5e5e"/><path d="M474.2 409.17l-6-18.5h12zm-3.26-16.5l3.26 10.02 3.26-10.04z" stroke="#5e5e5e" stroke-width=".05" fill="#5e5e5e"/><use xlink:href="#n" transform="matrix(1,0,0,1,434.76737630018397,350.666666666686) translate(0 14.222222222222223)"/><use xlink:href="#o" transform="matrix(1,0,0,1,434.76737630018397,350.666666666686) translate(45.38271604938272 14.222222222222223)"/><path d="M633.2 390.66h-2V372h2zm0-40h-2V314.5h2z" stroke="#5e5e5e" stroke-width=".05" fill="#5e5e5e"/><path d="M632.18 313.5l1.02-.03v1.06h-2v-1.1z" fill="#5e5e5e"/><path d="M632.18 313.48l1.04-.04v1.1h-2.05v-1.13zm-.96 1.02h1.95v-1l-1 .03-.95-.06z" stroke="#5e5e5e" stroke-width=".05" fill="#5e5e5e"/><path d="M632.2 405.93l-4.64-14.27h9.28z" fill="#5e5e5e"/><path d="M632.2 409.17l-6-18.5h12zm-3.26-16.5l3.26 10.02 3.26-10.04z" stroke="#5e5e5e" stroke-width=".05" fill="#5e5e5e"/><use xlink:href="#n" transform="matrix(1,0,0,1,592.7673763001449,350.666666666686) translate(0 14.222222222222223)"/><use xlink:href="#o" transform="matrix(1,0,0,1,592.7673763001449,350.666666666686) translate(45.38271604938272 14.222222222222223)"/><path d="M791.2 390.66h-2V372h2zm0-40h-2V314.5h2z" stroke="#5e5e5e" stroke-width=".05" fill="#5e5e5e"/><path d="M790.18 313.5l1.02-.03v1.06h-2v-1.1z" fill="#5e5e5e"/><path d="M790.18 313.48l1.04-.04v1.1h-2.05v-1.13zm-.96 1.02h1.95v-1l-1 .03-.95-.06z" stroke="#5e5e5e" stroke-width=".05" fill="#5e5e5e"/><path d="M790.2 405.93l-4.64-14.27h9.28z" fill="#5e5e5e"/><path d="M790.2 409.17l-6-18.5h12zm-3.26-16.5l3.26 10.02 3.26-10.04z" stroke="#5e5e5e" stroke-width=".05" fill="#5e5e5e"/><use xlink:href="#n" transform="matrix(1,0,0,1,750.767376300106,350.666666666686) translate(0 14.222222222222223)"/><use xlink:href="#o" transform="matrix(1,0,0,1,750.767376300106,350.666666666686) translate(45.38271604938272 14.222222222222223)"/><path d="M949.2 390.66h-2V372h2zm0-40h-2V314.5h2z" stroke="#5e5e5e" stroke-width=".05" fill="#5e5e5e"/><path d="M948.18 313.5l1.02-.03v1.06h-2v-1.1z" fill="#5e5e5e"/><path d="M948.18 313.48l1.04-.04v1.1h-2.05v-1.13zm-.96 1.02h1.95v-1l-1 .03-.95-.06z" stroke="#5e5e5e" stroke-width=".05" fill="#5e5e5e"/><path d="M948.2 405.93l-4.64-14.27h9.28z" fill="#5e5e5e"/><path d="M948.2 409.17l-6-18.5h12zm-3.26-16.5l3.26 10.02 3.26-10.04z" stroke="#5e5e5e" stroke-width=".05" fill="#5e5e5e"/><use xlink:href="#n" transform="matrix(1,0,0,1,908.7673763000673,350.666666666686) translate(0 14.222222222222223)"/><use xlink:href="#o" transform="matrix(1,0,0,1,908.7673763000673,350.666666666686) translate(45.38271604938272 14.222222222222223)"/><path d="M1107.2 390.66h-2V372h2zm0-40h-2V314.5h2z" stroke="#5e5e5e" stroke-width=".05" fill="#5e5e5e"/><path d="M1106.18 313.5l1.02-.03v1.06h-2v-1.1z" fill="#5e5e5e"/><path d="M1106.18 313.48l1.04-.04v1.1h-2.05v-1.13zm-.96 1.02h1.95v-1l-1 .03-.95-.06z" stroke="#5e5e5e" stroke-width=".05" fill="#5e5e5e"/><path d="M1106.2 405.93l-4.64-14.27h9.28z" fill="#5e5e5e"/><path d="M1106.2 409.17l-6-18.5h12zm-3.26-16.5l3.26 10.02 3.26-10.04z" stroke="#5e5e5e" stroke-width=".05" fill="#5e5e5e"/><use xlink:href="#n" transform="matrix(1,0,0,1,1066.7673763000282,350.666666666686) translate(0 14.222222222222223)"/><use xlink:href="#o" transform="matrix(1,0,0,1,1066.7673763000282,350.666666666686) translate(45.38271604938272 14.222222222222223)"/><path d="M1265.2 390.66h-2V372h2zm0-40h-2V314.5h2z" stroke="#5e5e5e" stroke-width=".05" fill="#5e5e5e"/><path d="M1264.18 313.5l1.02-.03v1.06h-2v-1.1z" fill="#5e5e5e"/><path d="M1264.18 313.48l1.04-.04v1.1h-2.05v-1.13zm-.96 1.02h1.95v-1l-1 .03-.95-.06z" stroke="#5e5e5e" stroke-width=".05" fill="#5e5e5e"/><path d="M1264.2 405.93l-4.64-14.27h9.28z" fill="#5e5e5e"/><path d="M1264.2 409.17l-6-18.5h12zm-3.26-16.5l3.26 10.02 3.26-10.04z" stroke="#5e5e5e" stroke-width=".05" fill="#5e5e5e"/><use xlink:href="#n" transform="matrix(1,0,0,1,1224.7673762999898,350.666666666686) translate(0 14.222222222222223)"/><use xlink:href="#o" transform="matrix(1,0,0,1,1224.7673762999898,350.666666666686) translate(45.38271604938272 14.222222222222223)"/><path d="M1423.2 390.66h-2V372h2zm0-40h-2V314.5h2z" stroke="#5e5e5e" stroke-width=".05" fill="#5e5e5e"/><path d="M1422.18 313.5l1.02-.03v1.06h-2v-1.1z" fill="#5e5e5e"/><path d="M1422.18 313.48l1.04-.04v1.1h-2.05v-1.13zm-.96 1.02h1.95v-1l-1 .03-.95-.06z" stroke="#5e5e5e" stroke-width=".05" fill="#5e5e5e"/><path d="M1422.2 405.93l-4.64-14.27h9.28z" fill="#5e5e5e"/><path d="M1422.2 409.17l-6-18.5h12zm-3.26-16.5l3.26 10.02 3.26-10.04z" stroke="#5e5e5e" stroke-width=".05" fill="#5e5e5e"/><g><use xlink:href="#n" transform="matrix(1,0,0,1,1382.7673762999505,350.666666666686) translate(0 14.222222222222223)"/><use xlink:href="#o" transform="matrix(1,0,0,1,1382.7673762999505,350.666666666686) translate(45.38271604938272 14.222222222222223)"/></g><path d="M364.2 1074.67c17.67 0 32 17.9 32 40s-14.33 40-32 40h-96c-17.67 0-32-17.9-32-40s14.33-40 32-40z" stroke="#5e5e5e" stroke-width="3" fill="#fff"/><g><use xlink:href="#p" transform="matrix(1,0,0,1,241.19947506565478,1079.666666666667) translate(16.481481481481495 39.65277777777778)"/><use xlink:href="#q" transform="matrix(1,0,0,1,241.19947506565478,1079.666666666667) translate(96.60493827160494 39.65277777777778)"/></g><defs><path fill="#333" d="M101-251c68 0 85 55 85 127S166 4 100 4C33 4 14-52 14-124c0-73 17-127 87-127zm-1 229c47 0 54-49 54-102s-4-102-53-102c-51 0-55 48-55 102 0 53 5 102 54 102" id="r"/><use transform="matrix(0.06172839506172839,0,0,0.06172839506172839,0,0)" xlink:href="#r" id="a"/><path fill="#333" d="M27 0v-27h64v-190l-56 39v-29l58-41h29v221h61V0H27" id="s"/><use transform="matrix(0.06172839506172839,0,0,0.06172839506172839,0,0)" xlink:href="#s" id="b"/><path fill="#333" d="M101-251c82-7 93 87 43 132L82-64C71-53 59-42 53-27h129V0H18c2-99 128-94 128-182 0-28-16-43-45-43s-46 15-49 41l-32-3c6-41 34-60 81-64" id="t"/><use transform="matrix(0.06172839506172839,0,0,0.06172839506172839,0,0)" xlink:href="#t" id="c"/><path fill="#333" d="M126-127c33 6 58 20 58 59 0 88-139 92-164 29-3-8-5-16-6-25l32-3c6 27 21 44 54 44 32 0 52-15 52-46 0-38-36-46-79-43v-28c39 1 72-4 72-42 0-27-17-43-46-43-28 0-47 15-49 41l-32-3c6-42 35-63 81-64 48-1 79 21 79 65 0 36-21 52-52 59" id="u"/><use transform="matrix(0.06172839506172839,0,0,0.06172839506172839,0,0)" xlink:href="#u" id="d"/><path fill="#333" d="M155-56V0h-30v-56H8v-25l114-167h33v167h35v25h-35zm-30-156c-27 46-58 90-88 131h88v-131" id="v"/><use transform="matrix(0.06172839506172839,0,0,0.06172839506172839,0,0)" xlink:href="#v" id="e"/><path fill="#333" d="M54-142c48-35 137-8 131 61C196 18 31 33 14-55l32-4c7 23 22 37 52 37 35-1 51-22 54-58 4-55-73-65-99-34H22l8-134h141v27H59" id="w"/><use transform="matrix(0.06172839506172839,0,0,0.06172839506172839,0,0)" xlink:href="#w" id="f"/><path fill="#333" d="M110-160c48 1 74 30 74 79 0 53-28 85-80 85-65 0-83-55-86-122-5-90 50-162 133-122 14 7 22 21 27 39l-31 6c-5-40-67-38-82-6-9 19-15 44-15 74 11-20 30-34 60-33zm-7 138c34 0 49-23 49-58s-16-56-50-56c-29 0-50 16-49 49 1 36 15 65 50 65" id="x"/><use transform="matrix(0.06172839506172839,0,0,0.06172839506172839,0,0)" xlink:href="#x" id="g"/><path fill="#333" d="M64 0c3-98 48-159 88-221H18v-27h164v26C143-157 98-101 97 0H64" id="y"/><use transform="matrix(0.06172839506172839,0,0,0.06172839506172839,0,0)" xlink:href="#y" id="h"/><path fill="#333" d="M230 0l2-204L168 0h-37L68-204 70 0H24v-248h70l56 185 57-185h69V0h-46" id="z"/><path fill="#333" d="M185-48c-13 30-37 53-82 52C43 2 14-33 14-96s30-98 90-98c62 0 83 45 84 108H66c0 31 8 55 39 56 18 0 30-7 34-22zm-45-69c5-46-57-63-70-21-2 6-4 13-4 21h74" id="A"/><path fill="#333" d="M135-150c-39-12-60 13-60 57V0H25l-1-190h47c2 13-1 29 3 40 6-28 27-53 61-41v41" id="B"/><path fill="#333" d="M195-6C206 82 75 100 31 46c-4-6-6-13-8-21l49-6c3 16 16 24 34 25 40 0 42-37 40-79-11 22-30 35-61 35-53 0-70-43-70-97 0-56 18-96 73-97 30 0 46 14 59 34l2-30h47zm-90-29c32 0 41-27 41-63 0-35-9-62-40-62-32 0-39 29-40 63 0 36 9 62 39 62" id="C"/><g id="i"><use transform="matrix(0.04938271604938272,0,0,0.04938271604938272,0,0)" xlink:href="#z"/><use transform="matrix(0.04938271604938272,0,0,0.04938271604938272,14.765432098765434,0)" xlink:href="#A"/><use transform="matrix(0.04938271604938272,0,0,0.04938271604938272,24.641975308641978,0)" xlink:href="#B"/><use transform="matrix(0.04938271604938272,0,0,0.04938271604938272,31.555555555555557,0)" xlink:href="#C"/><use transform="matrix(0.04938271604938272,0,0,0.04938271604938272,42.370370370370374,0)" xlink:href="#A"/></g><path fill="#333" d="M30 0v-248h33v221h125V0H30" id="D"/><path fill="#333" d="M100-194c63 0 86 42 84 106H49c0 40 14 67 53 68 26 1 43-12 49-29l28 8c-11 28-37 45-77 45C44 4 14-33 15-96c1-61 26-98 85-98zm52 81c6-60-76-77-97-28-3 7-6 17-6 28h103" id="E"/><path fill="#333" d="M108 0H70L1-190h34L89-25l56-165h34" id="F"/><path fill="#333" d="M24 0v-261h32V0H24" id="G"/><g id="j"><use transform="matrix(0.06172839506172839,0,0,0.06172839506172839,0,0)" xlink:href="#D"/><use transform="matrix(0.06172839506172839,0,0,0.06172839506172839,12.345679012345679,0)" xlink:href="#E"/><use transform="matrix(0.06172839506172839,0,0,0.06172839506172839,24.691358024691358,0)" xlink:href="#F"/><use transform="matrix(0.06172839506172839,0,0,0.06172839506172839,35.80246913580247,0)" xlink:href="#E"/><use transform="matrix(0.06172839506172839,0,0,0.06172839506172839,48.148148148148145,0)" xlink:href="#G"/></g><path fill="#333" d="M185-189c-5-48-123-54-124 2 14 75 158 14 163 119 3 78-121 87-175 55-17-10-28-26-33-46l33-7c5 56 141 63 141-1 0-78-155-14-162-118-5-82 145-84 179-34 5 7 8 16 11 25" id="H"/><path fill="#333" d="M59-47c-2 24 18 29 38 22v24C64 9 27 4 27-40v-127H5v-23h24l9-43h21v43h35v23H59v120" id="I"/><g id="k"><use transform="matrix(0.06172839506172839,0,0,0.06172839506172839,0,0)" xlink:href="#H"/><use transform="matrix(0.06172839506172839,0,0,0.06172839506172839,14.814814814814813,0)" xlink:href="#E"/><use transform="matrix(0.06172839506172839,0,0,0.06172839506172839,27.160493827160494,0)" xlink:href="#I"/></g><path fill="#333" d="M100-194c62-1 85 37 85 99 1 63-27 99-86 99S16-35 15-95c0-66 28-99 85-99zM99-20c44 1 53-31 53-75 0-43-8-75-51-75s-53 32-53 75 10 74 51 75" id="J"/><path fill="#333" d="M101-234c-31-9-42 10-38 44h38v23H63V0H32v-167H5v-23h27c-7-52 17-82 69-68v24" id="K"/><g id="l"><use transform="matrix(0.06172839506172839,0,0,0.06172839506172839,0,0)" xlink:href="#J"/><use transform="matrix(0.06172839506172839,0,0,0.06172839506172839,12.345679012345679,0)" xlink:href="#K"/></g><path fill="#333" d="M115-194c55 1 70 41 70 98S169 2 115 4C84 4 66-9 55-30l1 105H24l-1-265h31l2 30c10-21 28-34 59-34zm-8 174c40 0 45-34 45-75s-6-73-45-74c-42 0-51 32-51 76 0 43 10 73 51 73" id="L"/><path fill="#333" d="M24-231v-30h32v30H24zM24 0v-190h32V0H24" id="M"/><path fill="#333" d="M117-194c89-4 53 116 60 194h-32v-121c0-31-8-49-39-48C34-167 62-67 57 0H25l-1-190h30c1 10-1 24 2 32 11-22 29-35 61-36" id="N"/><path fill="#333" d="M135-143c-3-34-86-38-87 0 15 53 115 12 119 90S17 21 10-45l28-5c4 36 97 45 98 0-10-56-113-15-118-90-4-57 82-63 122-42 12 7 21 19 24 35" id="O"/><g id="m"><use transform="matrix(0.06172839506172839,0,0,0.06172839506172839,0,0)" xlink:href="#L"/><use transform="matrix(0.06172839506172839,0,0,0.06172839506172839,12.345679012345679,0)" xlink:href="#J"/><use transform="matrix(0.06172839506172839,0,0,0.06172839506172839,24.691358024691358,0)" xlink:href="#M"/><use transform="matrix(0.06172839506172839,0,0,0.06172839506172839,29.5679012345679,0)" xlink:href="#N"/><use transform="matrix(0.06172839506172839,0,0,0.06172839506172839,41.913580246913575,0)" xlink:href="#I"/><use transform="matrix(0.06172839506172839,0,0,0.06172839506172839,48.08641975308642,0)" xlink:href="#O"/></g><path fill="#333" d="M25 0v-261h50V0H25" id="P"/><path fill="#333" d="M110-194c64 0 96 36 96 99 0 64-35 99-97 99-61 0-95-36-95-99 0-62 34-99 96-99zm-1 164c35 0 45-28 45-65 0-40-10-65-43-65-34 0-45 26-45 65 0 36 10 65 43 65" id="Q"/><path fill="#333" d="M190-63c-7 42-38 67-86 67-59 0-84-38-90-98-12-110 154-137 174-36l-49 2c-2-19-15-32-35-32-30 0-35 28-38 64-6 74 65 87 74 30" id="R"/><path fill="#333" d="M133-34C117-15 103 5 69 4 32 3 11-16 11-54c-1-60 55-63 116-61 1-26-3-47-28-47-18 1-26 9-28 27l-52-2c7-38 36-58 82-57s74 22 75 68l1 82c-1 14 12 18 25 15v27c-30 8-71 5-69-32zm-48 3c29 0 43-24 42-57-32 0-66-3-65 30 0 17 8 27 23 27" id="S"/><g id="n"><use transform="matrix(0.04938271604938272,0,0,0.04938271604938272,0,0)" xlink:href="#P"/><use transform="matrix(0.04938271604938272,0,0,0.04938271604938272,4.938271604938272,0)" xlink:href="#Q"/><use transform="matrix(0.04938271604938272,0,0,0.04938271604938272,15.753086419753087,0)" xlink:href="#R"/><use transform="matrix(0.04938271604938272,0,0,0.04938271604938272,25.629629629629633,0)" xlink:href="#S"/><use transform="matrix(0.04938271604938272,0,0,0.04938271604938272,35.50617283950618,0)" xlink:href="#P"/></g><path fill="#333" d="M137-138c1-29-70-34-71-4 15 46 118 7 119 86 1 83-164 76-172 9l43-7c4 19 20 25 44 25 33 8 57-30 24-41C81-84 22-81 20-136c-2-80 154-74 161-7" id="T"/><path fill="#333" d="M115-3C79 11 28 4 28-45v-112H4v-33h27l15-45h31v45h36v33H77v99c-1 23 16 31 38 25v30" id="U"/><g id="o"><use transform="matrix(0.04938271604938272,0,0,0.04938271604938272,0,0)" xlink:href="#T"/><use transform="matrix(0.04938271604938272,0,0,0.04938271604938272,9.876543209876544,0)" xlink:href="#Q"/><use transform="matrix(0.04938271604938272,0,0,0.04938271604938272,20.69135802469136,0)" xlink:href="#B"/><use transform="matrix(0.04938271604938272,0,0,0.04938271604938272,27.604938271604947,0)" xlink:href="#U"/></g><path fill="#333" d="M212-179c-10-28-35-45-73-45-59 0-87 40-87 99 0 60 29 101 89 101 43 0 62-24 78-52l27 14C228-24 195 4 139 4 59 4 22-46 18-125c-6-104 99-153 187-111 19 9 31 26 39 46" id="V"/><g id="p"><use transform="matrix(0.06172839506172839,0,0,0.06172839506172839,0,0)" xlink:href="#V"/><use transform="matrix(0.06172839506172839,0,0,0.06172839506172839,15.987654320987653,0)" xlink:href="#G"/><use transform="matrix(0.06172839506172839,0,0,0.06172839506172839,20.864197530864196,0)" xlink:href="#J"/><use transform="matrix(0.06172839506172839,0,0,0.06172839506172839,33.20987654320987,0)" xlink:href="#O"/><use transform="matrix(0.06172839506172839,0,0,0.06172839506172839,44.32098765432099,0)" xlink:href="#E"/><use transform="matrix(0.06172839506172839,0,0,0.06172839506172839,56.666666666666664,0)" xlink:href="#O"/><use transform="matrix(0.06172839506172839,0,0,0.06172839506172839,67.77777777777777,0)" xlink:href="#I"/></g><path fill="#333" d="M141-36C126-15 110 5 73 4 37 3 15-17 15-53c-1-64 63-63 125-63 3-35-9-54-41-54-24 1-41 7-42 31l-33-3c5-37 33-52 76-52 45 0 72 20 72 64v82c-1 20 7 32 28 27v20c-31 9-61-2-59-35zM48-53c0 20 12 33 32 33 41-3 63-29 60-74-43 2-92-5-92 41" id="W"/><path fill="#333" d="M114-163C36-179 61-72 57 0H25l-1-190h30c1 12-1 29 2 39 6-27 23-49 58-41v29" id="X"/><g id="q"><use transform="matrix(0.06172839506172839,0,0,0.06172839506172839,0,0)" xlink:href="#L"/><use transform="matrix(0.06172839506172839,0,0,0.06172839506172839,12.345679012345679,0)" xlink:href="#W"/><use transform="matrix(0.06172839506172839,0,0,0.06172839506172839,24.691358024691358,0)" xlink:href="#M"/><use transform="matrix(0.06172839506172839,0,0,0.06172839506172839,29.5679012345679,0)" xlink:href="#X"/></g></defs></g></svg>